<svg xmlns="http://www.w3.org/2000/svg" id="Layer_1" version="1.1" viewBox="0 0 910.3 315.9"><defs><style>.st1{fill:#fcee21}.st2{fill:#ed1e79}.st3{fill:#fff}</style></defs><g id="Group_10"><g id="Group_7"><g id="Group_6"><path id="Path_183" d="M288 231v-4 4" class="st3"/><path id="Path_184" d="M328 129c-2 1-2 1-2 3 2-1 2-1 2-3" class="st3"/><path id="Path_185" d="m354 218 4-2 1 4v6a6 6 0 0 1-6 5l-2 3c2 2 3 2 5 1l2-3c1-2 1-2 3 0l2 3v1l4 1v-6c-2-1-2-3-1-5v-1c-2-2-2-4-1-6v-2c-2-2-3-4-6-4-4-1-4-1-3-5l-1-3c-2 0-3-1-3-2l-1-1c-1-2-1-3 1-5l1-2-2-3v3l-3 2c-2 0-2-1-2-2v-1c0-4-1-7 1-10l1-3c-3 0-4 0-4-2l1-3h3l-3-3-4-3-1-2c0-2 1-3 3-3l4-2c2-1 1-2 2-4 0-3 0-4 4-4a2 2 0 0 0 2-2l-1-3c-1-2 0-3 2-3l2 1 2 2 3-2a1 1 0 0 0 0-2l-1-4-1-3-2-5-1-8c-1-2-2-4-4-4l-2-1c-1-4 0-8 1-12l1-5-3 1c-1-3-3-4-3-7l-1-3v-2l1-11c1-3 2-3 4-3h1v-5h3c1 3 4 10 3 11h-2l-2-1c-4 4-3 7-3 11h3c1 2 3 3 3 5v8l1 4v6c0 2 0 3 2 5v2l1 2 1 5 1 3c2-1 3-2 2-4 0-2 0-5 3-6l1-2-2-3-2 3-2 2-2-2v-2l3-7c2-2 1-5 3-8-3 0-3-2-3-4l-1-2c-2-2-2-5-2-8v-3l-1-4c0-2 2-3 3-1l2 2c2-3 3-4 1-5-2-2-2-4-1-6l-1-5-2-2v3l-1 2-1 1-1-1v-4l-1-6c-3 0-3 0-3-3v-7l3-2h2l-2-5-3-3c-1-1-1-3-3-3v2l-1 1-5-1-2-4c0-2-2-5-4-6-2-2-4-2-6-1l-2 2h-1l1 1 2 1c2 0 3 2 4 3v4h-4l-3 3v4c0 2 0 2-2 3a80 80 0 0 1 0 7 4 4 0 0 1-7 3c-3-2-5-5-5-9v-2l-1-3-5-2-4-5 1-2a2 2 0 0 1 3 1l5 4c3 2 5 4 5 7-1 1 0 3 2 4v-2l1-2 3-6c0-2-5-1-6-2l-2-3-1-2-6-5-4-2-3-1c0 3 0 3-2 4l-4 1h-3v7l-1 6v2a1 1 0 0 1-2 1l-3-4-1-2-1-8 1-2-1-1-5-4-8-1v5c1 3 0 3-2 3l-3-1c-3-1-5-1-8 1l-2 1-1-2 2-4c1-1 0-3-1-3h-6c-3 1-5 3-7 6-1 2-1 2 1 3l1 1-1 1c-1 2-2 4 0 6v3h-5c2 3 3 5 6 5l2 2-1 3-2 1h-2c1 2 1 4 3 5l1 2 1 2 5-6 2-8 5-6c2-1 3 0 3 2l-1 2-3 4v2l2 3 3 6c1 1 0 1-1 2l-3 1 3 3 1 1-2 1c-2 1-5 0-7-3l-1-2-5 2-3 2-2 5-2 5 1 6 3 3v-7c1-2 3-4 5-3h6l1-1c2 1 2 3 2 4v5c0 4-3 6-7 5h-1c0 3-2 5-3 6l-2 4v1c1 4 3 7 3 11 2 0 3-1 4-3l3-5h2v5l-2 7c0 3 0 3-3 3l-1 1v1l2 3 2 6h1c2 1 3 2 3 4v9l2 5c2 2 2 6 2 9 2 4 2 8 2 12l2 4 2 2c2 3 3 6 2 9v2l2 3 6 5-1-1-1-2c1-2 0-4-1-5s0-2 1-3h3v-1c-1-2 0-4 1-5v-4l-2-5 1-4-1-3-2-4c1-4 2-3 2-7 0-2 3-2 4-1 2 1 3-1 5 3v9c-1 4 0 5 3 7l2 3 3 3h4l3 1-1 3-3 1-1 1-1 4 2 2h3l4 2c0 2-2 3-3 4l1 3c1 2 3 2 4 2l3-2c2 0 3 0 3 2s-1 3-2 3c-3 2-3 2-3 5v7l2 2 1-3v-4c1-3 3-4 6-3h2v-1l3-6 3-3h4v3l-2 2-2 4v2c0 4-2 6-3 9l-2 1c-3 0-4 2-4 4v2l1 3c2 0 4 1 3 4l4-1c3-2 4-4 3-8l-1-5a2 2 0 0 1 3-1l2 3a31 31 0 0 1 2 7v3c0 2 2 6 4 7v-3l1-7v-6c1-3 3-5 6-4 2 0 3-1 3-2m-44-67-2 8c-1 2 1 3 1 6-1 3-3 2-3 5 0 1 0 2-2 2l-2-2-1-4v-10c1-2 3-1 2-3 0-2-2-2-3-3 0-2-2-2-3-3l3-3 2-2c1-2 4-1 6 1s2 5 2 8m0-20h-2l-4 2h-5a2 2 0 0 0-3 0l-2 3c-3 2-8 3-10 1l-3-6-1-2-2 1a4 4 0 0 1-6-3c0-2 0-4 2-5v-6h3l1 2 2-1 4-2c3 1 4 2 4 5v8l2 3c2-2 2-4 2-6l-2-6-3-9 1-6 1-4v-5l-1-4v-5c0-2 0-3 2-4 2 0 2-1 1-2l-1-5c1-1 1-2 3-2h2l8-6h3l4 1c2 0 6 5 8 7l2 2c2 2 4 2 6 1l1-1c3-1 4 1 4 3v5l1 3v2c1 2 0 2-2 2h-1v2c0 2 1 2 3 1h2v3c-2 3-2 5 0 8v4a2 2 0 0 1-2 1l-2-2-2-1-1 2v1a5 5 0 0 1 2 8v5l2-2c2-1 2-1 4 1 1 1 2 2 4 1l1 1v5c-2 2-3 3-6 2h-2v2c-1 4-5 6-8 4l-2-2v-9c0-3 0-3-4-2 0 3-2 5-5 6h-3m27 56c0 2 0 3-2 4v2c-1 2-3 3-6 3-2 0-4-2-4-4v-3h-5l-1-2v-5c0-2-1-5-3-7l-1-3a32 32 0 0 1-2-10 2 2 0 1 1 3 0l2 4v3l1 4 1 1 4 4 2 1h6v-3c0-2 1-3 3-4 1-1 1 0 2 1v14m3-29-2 2a4 4 0 0 1-6 0q-2-2-2-6l3-8c0-2 1-2 2-1l4 1 2-2 2-2a2 2 0 0 1 3 2l-1 6-1 2c0 2-1 4-3 4l-1 2" class="st3"/><path id="Path_186" d="m259 158 1 3c1-2 0-3-1-3" class="st3"/><path id="Path_187" d="M286 207v-4l-1-1 1 4v2-1" class="st3"/><path id="Path_188" d="M261 142" class="st3"/><path id="Path_189" d="M278 232c-2-1-4-1-4 1 0 4-2 7-5 8l-2 4h3l5 1c1-1 3 0 4 1l3 3c2 2 4 1 5-2v-5c-1-5-5-8-9-11" class="st3"/><path id="Path_190" d="m134 244 1 2h2l1-1-2-1a1 1 0 0 0-2 0" class="st3"/><path id="Path_191" d="M623 228c-1 2-1 5 2 7 0-4 0-6-2-7" class="st3"/><path id="Path_192" d="M505 261a20 20 0 0 1-8 0c-1 3 0 5 2 5s5-2 6-4v-1" class="st3"/><path id="Path_193" d="M585 184a6 6 0 0 0 4-9c-2-2-3-3-6-2h-4c-3 0-3 0-3 4-1 1 0 2 1 3l1 2 1 2c1 2 2 2 3 1l3-1" class="st3"/><path id="Path_194" d="m253 141 1 1v-4l-2-5-1-1-1 1c-1 2 0 7 3 8" class="st3"/><path id="Path_195" d="m526 167-1-3-1-2-2 2v2c-1 2-2 3-4 3-1-1-2-1-2-3l1-4 4-9 2-5 4-7v-11l-1-6c0-2 0-5-2-8v-2l-1-2-1-6c0-2 1-3 3-2l3 1 3-7v-3l-2-5c-1-1-1-2-3-2v5l-2 2-2-2-1-4v-2l5-11c3-5 4-10 5-14v-1c0-2-1-3-3-3l-2-1-1-5 1-2c1-1 1-2-1-2-2-1-4 1-5 3s-2 3-4 1l-3-4c-1-2-3-1-5-1l-2 2-1 1-7 4h-2l-2-6c1-2 0-4-2-4h-4c-4 2-7 4-10 8v1l5-1c1 0 2 1 1 2l-2 3c-2 2-2 6-1 9l1 2c0 2-1 3-3 2-1 0-2-1-2-3l-1-5v-3l-2 1c-2 6-1 10 3 14 1 3 4 4 6 3h2l3 3-3 3h-2l-3 2c4 2 4 2 4 5v6l-1 3-1 4h-1l2 3v8c-1 2-2 4-1 6l1 2v2c-1 4-1 8 1 11l2 7c2 2 2 5 2 7l-1 9v9c2 4 0 8-2 11l-1 1v1l-1 1-1 2c0 3 0 5-2 7v1c0 3-1 6-3 8h1l4 2-3 3c-1 0-2 1-1 2 1 2 0 3-1 5s-1 5 1 7v1l-1 3h-2l-2-1h-1l1 3 5 3c2 0 3 2 2 4l-2 1c-2 0-2 2-2 3v1c2 2 4 4 4 7l1 2 6 6 2 3 2 7 1 2v-1c0-3 1-6 4-7 2-2 2-2 1-4s0-3 1-4a2 2 0 0 1 3 0l3 4 5-1c2 1 4 2 4 5 0 2 0 4-2 6v5h5c-2-2-2-2-1-4l1-2 1-4 1-3v-3l-1-1c-3 0-3 0-3-3l1-2 4-4c3-4 3-8 0-12l-1-2v-3l1-1c4-3 5-6 5-11l-1-7-2-6-1-1-1 1v1a3 3 0 0 1-4 2c-1-1-2-1-1-3v-8l-2-7c3-2 3-2 5 0l2 4c1 1 2 2 3 0l2-4 1-4c2-3 2-8 1-12m-4-28h1c2 2 1 4 1 5l-2 4-2 2c-2 0-3-1-2-2l4-9m-6-21h4l-1 3c-1 2-1 4 1 6l1 2-1 2h-3l-1-2-2-3-1 2c-2 1-3 1-3-1v-5l1-6 1-2a439 439 0 0 0 3-11c1 0 2 0 3 2s1 5-1 8l-1 5m-22-56h4c3 2 3 3 2 6-1 1-2 2-1 4 2 0 2-1 2-2l1-4a5 5 0 0 1 7-2c3 2 4 6 3 9-2 3-2 3 1 6l2 1v-2l1-11c0-3 4-7 6-7l2 2v2l-3 3-2 4a212 212 0 0 1 0 13 7 7 0 0 1-9 6c-2 0-4-2-4-5V73c-2 0-2 1-3 2-1 2-3 3-6 3-1 0-2-1-2-3v-6l-1-3v-4m-7 46-2-2 1-3h3l4 2c4 0 6 3 4 6l-1 3c-1 1-1 2 1 3l3-5 1 2 1 8c0 2-2 4-4 5-2 0-5-1-6-3l-1-2 1-11c0-2-1-3-3-3h-2m10 108v2c-2 1-2 3-2 5l-1 2-2 6-2 1c-1-2-2-5 0-7l1-4 1-12-1-4h-3c-2-1-3-2-3-4a1637 1637 0 0 1 2-18l1-16v-5l1-2c2 0 2 1 2 2l1 2v3c2 5 2 10 0 15v2c1 0 2-1 3 1v3c-2 3-2 4 0 7v4a240 240 0 0 0 2 9v8m1-52c-1-3-1-7 1-10l1-5 1-4h1l1 1v10l2 2 1-2 1-6v-3c0-4 2-6 5-8l2-1h4l-1 3-3 3c-2 0-3 2-4 5v6c1 3 1 5-1 8l-3 4a5 5 0 0 1-8-3m14 68c2 4-1 8-5 8h-2c-2-1-3-1-3-3l1-9c2-2 1-4 0-7v-3c0-2 1-2 2-2 2 1 3 3 3 5v3l-1 7-1 1 1 2 2-1v-1h3m1-56q-3 0-3 3v4l-2 4c-2 2-4 2-6 2l-3-4v-6c1-2 2-3 5-2l2 1c1-6 0-5 6-7h2c2-1 2 0 2 1 0 2-1 4-3 4" class="st3"/><path id="Path_196" d="M481 265v-2c-2-2-2-4-2-7v-1c-1-2-3-4-6-4-4-1-4-1-4-5 1-2 1-2-1-3l-3-2-1-1c-1-2-1-4 1-5l1-2c0-1-1-3-3-3v2c0 1 0 2-2 3-1 1-2 0-2-1-1-4-2-9 0-13v-3h-3v-4c0-2 2-1 3-1l-3-3-4-3h-3l-2 4v4c0 3-2 6-6 7-2 0-5-2-6-4v-4c-1-2-1-3-3-3h-1a2 2 0 0 1-1-2c0-3 1-3 4-3 2-1 3 0 5 2 2 1 3 1 4-1l7-6c1-1 2-1 2-3l1-1 2 1v3l4-2v-5c0-2 1-3 3-3 3 0 4-1 3-4l-1-2v-2l2-1a6 6 0 0 1 4 3l2-1c2-1 2-2 1-3s-2-3-1-5l-1-2c-2-1-3-4-3-6l-2-7c0-2 2-6 3-4l1 2 1 2c1 2 2 3 1 5l1 4 2-2v-3c0-2 0-4 2-6s2-2 1-4l-2-2-2 4-2 2a2 2 0 0 1-1-3l1-4 4-12c-3-1-4-3-4-5l-1-2c-2-2-2-5-2-8l-1-4-1-5h3l3 2c1-2 2-4 0-5-2-2-2-4-2-7v-4l-3-2v5l-2 1-1-1v-3l-1-8c-4 1-4 1-4-3v-6c0-2 1-3 3-3h2l-4-7-5-4v1c0 2 0 2-3 3-2 0-4-2-5-5l-5-7c-1-1-4-2-5-1-2 2-3 3-5 3l-5 2 1 1c0 2 0 3-2 3l-3 1c-4 0-6-3-9-5l-5-3h-4l1 3-7 3h-3l-2-1c-2 2-4 2-6 0l-6-4h-8l1 6v2l1 2c1 3 1 5-1 8l-1 6v3c0 4-1 7 1 11l2 6 1 8-1 8-1 4v4c2 5 0 8-3 11l-2 5-2 6-1 1c0 3-2 5-4 7 0 3 0 3-3 4-1 1-2 1-2 3 1 3 6 7 8 8l2 4 1 17c0 3-3 4-4 3l-2-4-1-7-4-7-4-10v-3l-1 1v3l1 6v2l1 4h1l2 6 3 6c1 2 3 4 3 7l1 2 6 6 1 2 1 7h1c2-1 3 0 4 2v5l1 2v9l-3 4-5 6c-4 4-9 5-14 2l-3-2 1 6-1 3c-3 2-4 5-4 7l-1 8v2c1 1 2 3 1 4 0 4 2 6 4 9h1l1-7-1-12c0-3 0-6 2-8s5-2 6 1v3l2 1v-4c0-4 2-7 5-9l4-3a2 2 0 0 1 2-1l2 2c0 2 0 4-3 6-4 2-6 6-5 10l-2 5-2 2v2l2 1c2 0 3-2 4-3s0-2-1-4v-3h4l2 1c2 2 2 2 4 1l4-1h2c1-5 1-9-1-13a2 2 0 0 1 2-3c1 0 2 0 3 2l1 2c2 3 2 6 0 9v7h1l2 1v3h-2l-1-1c-1 2 0 3 2 3s2-2 3-3c2-3 1-6 0-9l-1-4-1-4c-1-3-2-6-1-9 2-3 1-5-1-7l-1-2v-2l-2-5c-1-1-1-2 1-3l2-1 1-5c1-1 1-3-1-5l-1-3v-6l-1-3-2-6a229 229 0 0 1 1-15c2 0 2 1 2 2l1 5h3l1-1c2 0 2 1 2 2l1 4c1 2 2 5 1 8-1 4 0 5 3 7l3 3c0 3 1 3 3 3h5c2 0 3 1 1 3l-3 3h-1v4c0 2 0 3 3 3h4c3 0 3 2 1 3l-2 3 2 3c1 1 2 2 4 1l3-2c1 0 2 0 3 2 0 2 0 3-2 4-3 1-3 2-3 5l1 2v5c0 1 0 2 2 2v-4l1-4c0-3 2-4 5-3h2l1-1v-1l4-9h5v4h-1c-2 2-3 5-2 7 1 4-1 7-2 10l-3 1c-3 1-4 3-3 5v2c-1 1 0 2 1 2l3 2v3l4-2c3-1 5-4 2-7l-1-6 1-2 3 1 2 3a28 28 0 0 1 2 7c0 4 2 6 3 9l2 1 1-2-1-5v-9c1-4 3-6 7-6l2-1 4-3 2 4v6c0 4-2 6-6 6l-4 1 2 2c3 2 6 2 7-1 1-4 2-4 4-1l2 2v2h4c1-2 1-4-1-6-1-1-2-3-1-4M433 86h5l2 1 2-3a4 4 0 0 1 5 0l2 2 3 2c3 1 3 2 1 4-1 2-3 3-5 3h-2l-2 6c-1 3-3 2-5 3l-4-2v-8c1-2 0-3-2-3l-2-2c0-2 1-3 2-3m-19-9h2l3 3 2 2 1 9c0 3-2 4-5 4-2 0-3 0-3-2V77m-30 65c-1 1-3 1-3-1v-5l2-5v-1l1-1 1 1 1 5c1 3 0 5-2 7m3-45-2 5c-2 2-5 1-6-2V87l-1-3 1-2c1-1 2 0 2 1l2 2 1-1 4-2c1 1 1 0 2-1 0-3 1-3 4-2-2 3-1 6-1 9v2c0 2-1 4-3 4-3 1-3 1-3 3m28 109c-1 1-2 1-2 3-1 2-2 2-4 1-2-2-3-5-4-9v-13l-2-7c0-2 1-3 2-3l2 2 2 4 1 7v2c0 2 0 4 3 5l1 2 2 4c1 1 0 2-1 2m10-45c1 5-3 6-5 8h-1c-3-1-5 1-7 2h-7l-2 1-3 2c-2 3-7 4-10 3l-2-2c-1-2-3-14 5-11 2 1 1 2 1 3l2 3c2-2 2-4 1-6l-2-7-3-9v-5l1-6v-4c-2-1-2-3-2-5v-5c0-2 0-3 2-4s2-1 1-3l-1-5 2-2h2c4-2 5-1 8 2l2-1v-3l-2-2v-3h3l3 1c3 0 6 0 7-3 1-1 2-2 3-1h3v4l-3 2v4l3 3c2 2 4 2 6 1l2-1c2-1 4 0 4 2v6l1 3 1 1c0 2-1 3-3 3h-1v2c1 1 2 2 3 1h3v3c-2 3-2 5 0 8l1 4c0 2-2 2-3 1l-2-2h-2l-1 2v1c4 1 6 4 6 8l-2 7c-1 1 1 4 2 6l2 1 2-3 3-3a4 4 0 0 1 5 2l1 3c2-1 1-2 1-3l-1-4c1-3 1-6 4-8 2-2 2-2 5 0l-2 4-1 3v8c0 2-1 5-3 6s-5 1-7-1l-1 2-1 7-3 2c-4 0-5-1-6-4v-6c-1 2-4 2-6 1l-1-2-1-9c0-3-1-3-4-3" class="st3"/><path id="Path_197" d="M396 198v6c2-2 2-4 0-6" class="st3"/><path id="Path_198" d="m386 275-4 1-1 1 1 1 2 1 3-1v-2l-1-1" class="st3"/><path id="Path_199" d="M61 40c-2 0-4-1-5 2l11 1c-2-3-3-4-6-3" class="st3"/><path id="Path_200" d="m55 101 1-1v-6c-2 2-3 3-2 6l1 1" class="st3"/><path id="Path_201" d="m244 109-3-5-5-4h-2l2 4c3 2 5 5 5 8l1 2c1 3 1 4-2 5l-2 2v13c3-4 5-1 7 1l1-9v-9c0-3 0-6-2-8" class="st3"/><path id="Path_202" d="m72 246-5 1c1 2 3 2 5 1l1-1-1-1" class="st3"/><path id="Path_203" d="M241 98v-2 2" class="st3"/><path id="Path_204" d="M86 238c-2 1-3 3-2 5v3l2-1 2-4v-2l-2-1" class="st3"/><path id="Path_205" d="M121 249v3a2 2 0 0 0 2 0l4-4c-2-1-4 0-6 1" class="st3"/><path id="Path_206" d="M161 240a24 24 0 0 1 0 2l2-1v-2l-2 1" class="st3"/><path id="Path_207" d="m246 239-3-1-2-2h-1l1 2 1 5 2 5a2 2 0 0 0 3-1l1-5c1-2 0-2-2-3" class="st3"/><path id="Path_208" d="M268 228c2-1 3-2 3-4l-2-5c-1-2 0-4 1-4 2-1 4 0 4 2l1 1a1 1 0 0 0 2 0v-1c2-4 2-7 1-11-1-3-3-5-6-6s-3-2-3-4v-5l-1-1-2 1 1 4v3a184 184 0 0 1 0 11 1 1 0 0 1-2 0l-3-5-2-6c-3-3-5-7-9-8-2-1-2-2-1-3l3-1 4 2 3 1v-3l2-16c1-2 0-4-2-5v5c-1 2-2 2-4 2l-1-3v-4l-1-4c0-2 0-4-2-6s-3-4-1-7v-1l-3-2c-3-1-6-3-7-6l-1-1-1 2c0 1-1 2-3 2l-2-2v-2c-2-2-2-5-2-8 0-5 2-9-1-14v-3c2-1 2 0 3 1h3l-2-2-10-14v-8c0-2 1-2 2-2l8 3c2-1 3-2 2-4 1-4 1-9-1-13l-2-1-2 2c-1 2-2 2-4 0l2-3 4-9c2-3 2-5 2-7-3 1-5 0-6-2l-3-4-1-2v-3h3c1 0 1 1 2-1l-6-3c-1-1-2 0-3 2v2l-1 2-2-1-3-4-5-4h-8a1 1 0 0 0-2 2l5 3 2 3c1 2 0 3-2 3l-4-1c-1-2-2-2-4-2l-2 3c-1 3-3 4-6 4l-3 1-1 1c-2-3-2-5 0-8l3-4h-6v2c1 2 0 3-1 4-3 2-5 5-6 8 0 2-1 2-3 1-2 0-3 0-2 2l1 17v2l3-1h3v3l-4 7-5 5a321 321 0 0 1 3 7l5-10 2-7v-2l3-4 1-1 2 1-1 6-1 3c0 4-2 6-3 9a70 70 0 0 1-8 11v2h1a2 2 0 0 1 1 3l-2 5-1 3-1 10v4l-1 6-1 2c-1 6-4 9-8 12l-3 2 3 1 4 3 1 1 2 7v5l-1 8-2 8v13l1 6 1 6v1h2c2 0 2 1 2 3l-2 2-2 1v1c1 3 0 6-2 8l-2 4c4-4 8-8 9-14a3 3 0 0 1 5-2l1 2h3l1-1 2-2 7 1 6 5c2 2 6 2 9 0l5-5 2-1c2 1 5 1 6 3l2 2h2l1-2-2-2-2-2c-1-2-1-3 1-4h3c3 3 5 7 6 10 0 3 2 5 4 5l7 3 2 1c1 0 2 2 3 1s0-2-1-3c0-2 0-2 2-3 1-1 2 0 3 1l2 2 3 9-1 11c0 4 2 7 3 10 2 1 3 3 1 5 2 0 3-1 3-2l1-8v-10l-1-4-1-9 1-3 2-2c2-1 4 0 5 2l1 1m-49-85 1-2 2 2 4 4 1 2 3-2c0-1 1-2 3-2h4c2 0 3 1 3 3-1 3-1 7-3 10-2 2-2 5-3 7-1 3-2 3-6 6-2-1-4-3-3-6v-7c0-3-2-4-3-7l-2-2c-2-2-2-4-1-6m-28-79h3c3 1 5 3 5 6v4l1-1 2-8c1-3 6-6 8-6h4c2 1 3 2 3 4v5l-1 3c-1 1-2 0-3-1l-3-3-2-2-2 2v3l-1 8c0 5-3 8-8 7-3-1-4-2-4-4v-6c0-3 0-5-2-8v-3m27 131-3-4-3-2h-5c-1 0-3 0-4-2a2 2 0 0 0-2 0l-9 3-5 4c-2 4-4 4-8 3-3-1-5-4-5-7 0-2 0-4 2-5l1-2c0-3 0-6-2-8v-4c0-2 2-2 3-1l2 6v6c0 2 1 3 3 3v-9a29 29 0 0 1 3-6c0-3 2-6 3-8l1-2c1-4 0-5-3-5l-3-1-1-1 1-2h4l3-2-1-1a2 2 0 0 1 0-3l4-6 5-5-1-5-3-3-5-1c-3-2-3-7-2-10 2-3 4-6 4-11l-1-5-1-4c0-2 2-3 3-1l3 3 1 4v9l2 2c2 0 2-1 2-2s0-3 2-3c1 0 2 1 2 3l-2 10c-1 3-1 6 1 8l1-2 1-7 2-4c1-1 2-1 3 1l-1 4-1 6v5c-1 1 0 2 1 3l1 2-1 3-3-1h-1v5c-1 3 1 6 2 9l2 2 6 5 1 3v3c1 3 1 3 4 3l2 2v5c0 2 0 4 2 5v2c1 2-1 3-3 2l-3-1v2l2 2c3 2 2 5 2 7-1 2-3 2-5 1m25 4-2 1-2 3-1 4c0 4-3 6-6 7-3 0-5-2-6-4v-5c-1-2-1-2-3-2l-1-1a2 2 0 0 1-1-2c0-3 1-3 4-3l5 2c2 2 3 2 5 0l7-6 3-2 1-2 1 2c2 3 0 7-4 8m18 21a4 4 0 0 1-6-4v-9l-1-4v-4c2-1 4-1 5 1s3 4 2 7v5l1 5c1 1 0 3-1 3" class="st3"/><path id="Path_209" d="m152 179 3 2c1 0 2 0 2-2v-11l-2-3a1 1 0 0 0-2 1l-3 9c1 1 0 2-2 2s-2 1-2 3v8c0 3 0 5-2 8s-4 4-9 3c-2 0-3-1-3-2l-1-7v-2h-5l-2-1c-1-2-2-4-1-6l2-2c2 1 3 0 4-1l3-1c3 0 6 4 5 7l-1 3 4 3v-11c0-3 2-5 5-5h1l1-2 1-5 1-6c0-3-2-5-4-5-2-1-4 0-6 1l-6 1c-2 0-3-1-3-2l3-1 3-1 3-3v-4c-1-2 0-3 2-3l3 1c1 1 2 1 2-1 1-2 2-2 3-2l6-1c2 0 3 0 4-2l2-5v-5l-1 1-1 3-5 2v-4l2-5 7-10 2-7c0-1 0-2-2-2-2 1-3 0-4-1l-1 2-2 6-1 3v1l-3 9c0 2-1 3-3 3-1-1-2-1-2-3l1-2c1-3 1-6 3-8v-3c2-2 2-4 2-7v-5c0-2 1-2 3-1 1 1 1 2 3 2l-1-4-6-8-3-4c-1-3 0-4 3-4l2 1 4-3 1-1 2-2c1-3 0-5-2-7-1 0-2-1-2-3l-1-1c-1-1-2-3-1-5l-1-2-1-1-1 1v4l-1 5v5c0 2-1 3-3 3l-2-2V58l-2-2-4-7c-1-2-3-3-1-5-1-2-2-3-4-3h-5c-2 0-3 2-2 4 2 1 2 4 2 6s-1 3-3 2c-2 0-3 1-3 2l-1 2-1 2h-1l-1-2v-6c0-2 0-2 2-2s2-1 2-2v-2c-2-3-5-5-8-6h-2c-2 1-3 2-2 4l1 1-1 5h-4l-1-2-1-3-2 3-1 1c0 2-1 3-2 3-2 0-2 0-3-2l-2-4c-3-5-8-7-13-5 1 2 0 4-1 4-3 2-5 4-9 3l1 3-2 4-3-2v-1c-3-3-6-3-10-3a2 2 0 0 0-1 2l-1 3-4 3h-2l-3-2a2 2 0 0 1-2-2l1-3 2-3v-4c-3-2-6-3-9-2l-6 2c-2 2-2 3-1 5s1 2-1 4c-1 1-3 3-3 5v2l-1 2-2 5v3a3 3 0 0 0 4-1l2-3c1-1 2-2 3-1v9l1 1c0 1 1 2-1 3h-3l-2-2c-2 2-2 3-1 5l2 4c1 1 2 3 1 4 0 3 0 3 2 3 1 1 2 1 2 3 0 1 0 2-2 3h-2l-2 2c-2 3-2 6-2 9v5l5 8 7 11 1 2 1 8a2 2 0 0 1-1 2c-2 1-3 0-3-2l-3-8-2-3a1 1 0 0 0-2 0l-2 4v2l1 6 1 4c1 1 2 2 1 3v3l1 2c-1 3 0 5 1 6l1 2v14l-1 5-1 4h1c2-1 2-1 3 1a98 98 0 0 1 0 8l-1 1h-2l-1-2h-1l-1 1v2l3 5 6 5v3l-2 1h-2l-1 3a2584 2584 0 0 0-1 23c-1 3-2 7-1 10v8h2l1-2 1-8v-8l2-8 2-2c1-1 3 0 3 1v4l-2 2 1 4 2-3v-5l-1-11c-1-2-1-3 1-4l2-1 1 2 1 3c3 5 1 9 1 14v1l-2 4-1 2v3l1 3c0 2-1 3-3 2l-2-1c-1 4 3 8 7 7l6-3 2-2v-4l-1-1v-3l3-1 4 2h2l5-2c2 0 3-1 2-3l1-3a1 1 0 0 1 2-1c1 1 3 2 3 4l1 1 4-3h7c2 2 3 5 2 7l-1 3-1 4v3l1 4v8c3-1 6-2 6-6v-18c-1-3 1-5 2-7l3-3 3 1c2 1 1 2 0 3l-1 3c-2 1-2 3-2 4v11l1 3c2-1 2-2 2-3a3 3 0 0 1 4-2l2 1h2l1-2v-1c0-3 1-4 3-4h6l1-1c4-1 6-4 7-8l1-2 3-2 2 2v1c0 2 0 2 2 2 3 0 5 0 6 2h2l4-4-4-2c-4-3-4-7-2-11v-5l-1-2 1-3c2-1 3 0 4 1l1 1 1 3v4l-1 7 1 2 2-1a2 2 0 0 0 1-2v-3l1-2 1-5 1-1-1-10-2 1h-2l-1-2v-3l1-1 1-6c1-3 0-6-2-8l-3-1v-3c1-2 2-2 3-2m-31-54c-1 1-2 2-1 3v8c0 3-2 5-4 6-2 2-5 1-6 0h-1v2l-2 6-3 2c-3 0-5-1-5-4v-10c0-2 1-2 4-1l2-3 2-3a4 4 0 0 1 6 2l1 3 1-3-1-4c1-2 1-5 4-7 2-2 2-2 5 0l-2 3m-1-51c1-2 2-2 3-1l2 3 4 6c0 2 2 2 3 2 2-1 4 0 5 3v8l1 4 1 1-1 8-1 1-1-1v-4l-2-2c-3 0-3-1-3-3l1-4c1-2 0-2-1-3h-1c-3 1-2 1-3-2l-3-5-3-5-1-6M74 98l3-6v-4c0-2 1-3 2-2 3 1 5 2 8 0l5-2h5l2 1v4h3l3-1c3-1 5-4 6-7 1-2 3-3 4-1l1 2-2 5c-2 3-2 6 1 9l5 5 1 3 1 5-1 2-1 1-2-1v-3l-1-2c-2 1-2 2-1 3 2 3 2 6 1 9 0 3-2 6-5 8l-2 1c-3 2-5 1-5-2-2-1-3-1-3 1l-3 2-2 3c1 3 0 4-3 4h-2c-2-1-5 0-7 1l-1 1-3-1v-3l3-2v-3c-1-1-2-2-4-1v1c0 2-2 4-3 4l-2-1-1-2c-2-2-2-3-1-5l3-9c1-1 0-3-2-4a1 1 0 0 0-2 0l-1 3-3 1a2 2 0 0 1-1-3l2-5 2-4c0-2 2-4 3-5m-2 60c0 4-2 6-5 9a5 5 0 0 1-7-3l-1-4 1-6c0-2 1-3 3-1 1 1 3 2 2 4l1 2c1-1 3-3 2-4 0-4 2-6 5-7 2-1 4-2 6-5a2 2 0 0 1 2-1c1 1 2 2 1 3 0 2-1 4-3 5l-6 2-1 3v3m-9-88 5-5h2v4a57 57 0 0 1-6 6l-2 1-1-2v-1l2-3m-24 8c2-1 4-1 6 1l2 3 5-3 5 2 2-2c1-1 3 0 3 1v10l1 8-1 2-2 4-3 3h-1c-4 1-6-1-6-5v-1c0-3 0-3-2-3h-4l-2-2a396 396 0 0 1 0-9l1-2-3-4-1-1a1 1 0 0 1 0-2m13 111-4-1c-1-2-4-4-3-7l1-2 6 6v4m-1-40h-1v12l-2 2-1-2-1-3v-8l1-11v-3c-3-1-4-4-5-6-1-5-3-9-6-13-4-4-6-9-5-15 0-2 0-3 2-4v1l4 9 1 4 6 9c0 2 2 3 4 2l2 2 2 7v8l1 6 1 1c0 2-1 2-3 2m21 67-2 8c0 1 0 2-2 2h-2l-2 2-2 3c-2 2-5 2-7 1l-1-1c-1-3-1-6 1-9l1-6v-4l1-3 2 1h6l4 2c3 0 3 0 3 3v1m43-10-1-3c-2 0-2 1-2 3l-1 2c0 2-1 3-3 2l-2-2-3-2-1-1c-1 3-3 4-5 4h-3l-1 1c-2-2-4 0-6 0-4 2-7 1-10-1l-3-2c-3-1-5-4-4-7l1-6 1-3c2-5-1-9-5-10-3-1-5-3-7-6l1-3c2-2 4-1 4 0l4 4c2 1 5 1 6 3h2v-4l3-6 3-1 6-1c2 0 3 1 4 3 2 3 2 3 5 1l1-2c2-1 2-2 1-4l-1-4a2 2 0 0 1 3-1l2 3c3 3 5 5 9 5h1c2 0 2 1 2 2 0 2-1 3-3 3h-3l-2-1c-1 1 0 2 1 2l7 4c3 3 4 7 4 11l-2 2c-3 1-3 2-1 5l2-1h3v2l-1 2-1 5v1l-1 3c-2 0-3 0-4-2m17 6-2 2v4c1 2 2 5 1 8 0 2-2 4-5 5l-1 1c-2-1-4-3-4-5v-9l-1-4-1-2c0-2 1-2 3-2q3 2 6-1c1-2 3-2 4-1v4" class="st3"/><path id="Path_210" d="M627 35h2v-2l-4-2-1 1v2l3 1" class="st3"/><path id="Path_211" d="M77 198a5 5 0 0 0 1-7c-2 2-2 5-1 7" class="st3"/><path id="Path_212" d="M596 32h-3v2c1 1 2 1 3-2" class="st3"/><path id="Path_213" d="m585 193-1 1 2 3v-4h-1" class="st3"/><path id="Path_214" d="m606 196 2 2c0-2-1-2-2-2" class="st3"/><path id="Path_215" d="m633 145-1 2 1-2" class="st3"/><path id="Path_216" d="m622 193 1 1v-2l-1 1" class="st3"/><path id="Path_217" d="M619 162c0-2-1-2-2-3l-3 3 2 1 3-1" class="st3"/><path id="Path_218" d="m593 115 3 2v-1c-1-2-1-2-3-1" class="st3"/><path id="Path_219" d="m791 170 2-1c0-1-3-4-4-3l-1 1c-1 1 1 3 3 3" class="st3"/><path id="Path_220" d="M652 256v1l1-1h-1" class="st3"/><path id="Path_221" d="m626 158 5-7v-2l-1 1-5 8h1" class="st3"/><path id="Path_222" d="M883 102c-1-1-2-2-1-5l1-1-2-1c-2 0-3 0-3-2l-2-2c-2-1-2-1-2-3V76l2-3h1c-1-3-3-4-5-6l-5-3c-1-1-2-3-1-5l-2-4c-1-2-3-4-2-7l-6-2h-3l-4 2 2 2c1 2 0 3-1 3l-5-1-6-5-6-3c-2 0-3 0-3 2l-3 2-4 2h-3l-2-1h-1v1h-5l-7-5c-2-1-3-1-5 1l-1 3c0 2 0 3-2 3l-5-1-6 1c0 5-1 5-5 4h-1c-1 0-2-1-1-3l1-3h-2c-3-1-6 1-9 3a2 2 0 0 0-2 3c1 1 0 3-1 4l-3 3 4 4 2 7 1 1 1-3v-1l2-2c1 0 2 1 2 3v5l2 3v-8l1-5a4 4 0 0 1 6-2l3 3 2-2c0-1 1-2 3-2l3-2 3-3h2l1 1-1 4-6 4-2 1c1 3-1 5-2 7-1 3-4 4-6 4l-3-1v4c0 3-1 4-3 6h-1l-1 5-1 3 3 4v10c-2 1-2 3-1 5v15l3 7v8a89 89 0 0 1-1 13l-1 4 1 1 3-1c0-2 1-4 3-5-3-1-2-4-2-6v-9l1-2c1-1 2 0 3 1l1 2c2 1 2 4 2 7 0 2 0 5-2 7l-1 1a3383 3383 0 0 1 22 9h3l9-4 1-1v-2l1-3 2 1c2 2 2 1 3 0a5 5 0 0 1 9-1l1 3v14l1 3 4 4v-2c0-2 0-4-2-6a4 4 0 0 1 2-6c2-1 5-1 6 1l2 2 1-1 1-1h2v4c0 4 0 4-3 5q-3 0-3 3l-1 4c-2 3-4 4-6 4-4 1-4 2-5 6l1 4c0 2 1 3 2 3l3-4a2 2 0 0 1 2-2l1 1 1-4-1-2 2-2a2 2 0 0 1 2 2v11c0 3-1 5-4 7l-2-2-3 6-1 5h-1l-1-1c-1-2-2-2-4 0l-1 2-2-2 3-8h2l1 1c1-3 1-3-1-4l-2-1c-2-2-4-2-7-1l-1 2h1c1 1 2 3 1 4l-3 1h-1c-3 0-6 0-9 2h-3v-3l1-2v-1c-4-1-8-1-11 1s-5 2-8-1c-2-1-2-3-2-6v-13c0-2-1-3-3-3-1-1-1 1-2 2-1 2-2 2-3 1l-6-5c-2-1-3-1-4 1 0 2-2 3-3 4h-1c-1 5-4 7-8 10l1 2 3 4 2-2 4-2c1 1 3 0 4-1l6-4c1-1 2 0 2 1 1 2 1 4-1 5s-3 2-3 4c-1 3-3 5-6 6s-5 3-5 6l-5 4c-3 0-5-3-5-6v-6l1-8v-1l-4 3-1 4c2 1 2 3 2 5v5l1 2c2 1 3 4 3 6l2 6c2 3 4 5 4 8l1 2 5 5h1l2-1-1-2c-1-2-1-3 1-4 2 0 2-1 2-2l3-9h3l1 2c2-1 2-2 2-3l1-3 4-8c1-2 2-2 4-1v2l-2 6-1 2c0 3-2 6-4 8-1 2-3 3-3 5l-2 4h-4c2 3 1 5 1 8v9l1 2 2 5v4l2-1v-2c3-3 2-6 1-9v-11l3-6 1-1c3-1 6 0 7 3l1 3h1l2-4c0-2 2-4 3-5l4-4c1-1 3-1 3 1l-1 5-4 3-1 2v6-1l4-2c1 1 2 1 2 3v6c-1 4 1 6 4 9v-9l-1-3 4-8c2-2 4-3 6-1l4 4 2 2 2 4 1 2 2-1 3-4 3-4h3v1l2 2 1-2c1-2 1-2 3-1h1c1-2 2-2 4-1h5c2 2 4 1 5-1l2-3a2 2 0 0 0 0-3l-2-4c0-3-1-3-3-3l-4-4 1-8 2-2 1 1a2 2 0 0 0 3 0c2-1 4-1 5 1s3 4 2 7c-1 2 0 4 2 6l1-3 1-3c0-5 0-9-2-13v-10c1-2 1-3 3-2l3-1c0-3 2-6 0-8l-1-2-2-4c-2-2-3-4-2-6-3-3-3-3 1-7l-1-2c0-2 0-3 2-3l2-2v-3c0-1-1-2-3-2-2 1-3 0-3-2v-16c-3 1-4 0-4-2l-2-4-2-1-1 1 1 1 1 1v4h-4l-4-7-3-6-1-1-6 3c-3 1-4 1-6-1l-5-4h-5l-3 3 3 2c1 1 2 3 1 4h-4c-3-2-7-2-9 0l-3 2-2-1 1-4c1-2 1-3-1-4s-3-1-4 0c0 2-1 3-2 3l-4-1h-2l-4-1h-5c-4 3-9 1-10-3q0-2-2-2h-1c-2-1-3-1-3-4v-1l-1-7v-2a2 2 0 0 1 2-2l2 2 1 2h6c1 0 2 1 2 3v3c0 2 1 3 3 3v-17c0-4 3-6 6-7l2-2-1-3 1-6a1 1 0 0 1 3-1c1 2 2 1 3 1l4 2c3 1 4-1 6-2 2 0 2-1 2-2l-1-2 2-2 4 2c2 2 3 2 5 1h4c1 0 2 1 1 2-1 2-2 3-5 4h-2v1l2 2c2 1 2-1 3-2h2c1 2 3 3 3 6l-1 6 2 3c3 2 5 4 5 7 3-1 3-2 2-4l-1-4 2-2 2 1 4 2h3c2 0 3 1 3 3v4c0 1 1 2 2 1l5-4 3-3 2-1 1 2 1 3h1c3-1 4 0 4 3l1 2h1l1-1c-1-3 1-5 1-7 0-3 0-3 3-3l1-1-3-3m-57 135-4 1c-2-1-2-1-2-3v-8c0-2 1-2 3-2l1 1c3 1 4 3 4 6l-2 5m22 3c-3 1-5-1-6-5v-2l2-6 2-1 1 1v3l1 2 2-1c3 4 2 7-2 9m13-38c-3-1-4-3-3-6l2-8v-3l2-1a1 1 0 0 1 2 1v8c3 0 4 0 4 4s-3 6-7 5m-5-58 2 2 1 1a2 2 0 0 0 3 0h5l2 6v15c-1 1 0 3 1 4l1 4-1 2-2-1c-2-1-3-2-3-5v-13c-3 2-4 0-5-2l-3-6-2-2v-2l1-3m-21 0c0-2 1-3 3-2l2-1 5-2 2-2h2c2 2 1 7-2 8l-2 2-2 7c-1 2-3 1-5 1l-2-2-1-2v-7m-36 12v-1c3-2 4-4 2-7l-1-3c0-2 1-2 3-2l3 3v4c0 2 0 4-2 5-2 0-2 2-2 3a2 2 0 0 1-1 3l-3-1 1-4m17-72c-2 2-3 1-5 1-2-1-3-2-3-4l1-7c0-2 1-3 2-3h1c3-2 3-2 5 1 1 2 2 4 1 6 1 3 0 5-2 6m34-25-1 2c-2 1-2 3-1 5l-1 5v2c0 2-2 3-4 4-2 0-4-1-4-3l-1-4-3 1c-3 0-5-2-4-5v-6c0-1-1-3 1-3l3 1 2 2c2-2 4-2 6-1l3-1 4-2v3m15 34h-5v1c2 3 0 5-1 7-2 2-6 1-7-1l1-7 1-1 2-3v-1c0-4 2-5 5-4h1l1-3 2-4 3 1v7c1 2-1 7-3 8m7 9-1 2h-2c-2 0-3-2-3-5l1-3 2-3c1-1 3 0 3 2v7" class="st3"/><path id="Path_223" d="M834 166v-2l-1-2-1 1-3 4c2 2 4 2 5-1" class="st3"/><path id="Path_224" d="m672 265-5 1a1 1 0 0 0 0 2l2 1 3-1 1-2-1-1" class="st3"/><path id="Path_225" d="M767 260v-1c-2-2-2-4-1-7v-1c-2-3-3-5-6-5-4 0-4-1-4-5 1-1 0-2-1-2l-2-3-1-1c-2-3-2-4 1-5l1-2-3-4v3l-2 3-3-1c0-4-1-9 2-13v-3l-3-1v-4h3l-3-4-4-2-1-4 3-2h3c2-1 3-2 3-5v-2c0-2 1-3 4-3 2 0 3 0 2-3v-5h2l2 1 1 2 3-2a2 2 0 0 0 1-2c-1-2-2-3-1-5l-1-3-3-5-1-8c0-2-1-4-4-5l-1-1v-11l2-5-1-1-2 1c-2-3-4-5-4-8v-2l-1-4 2-10c0-3 1-4 4-3l1-3v-3l1-1 2 1 3 9v3h-2l-3-1c-3 3-4 8-2 12h3c1 1 3 3 3 5l-1 8c0 2 0 3 2 4v6c0 2 0 4 2 5v2l1 3 1 5 1 3 2-1v-3c0-3 0-5 2-6 3-2 3-2 1-4l-1-2c-2 1-2 2-2 4-1 1-2 2-3 1a2 2 0 0 1-1-2l1-4 5-13c-3 0-3-2-3-4l-1-2c-2-3-2-6-2-9v-3l-1-5c1-2 2-2 3-1l3 3c1-2 2-4 0-5-2-2-2-5-1-7l-1-4c0-2-1-2-2-2v2l-1 3-1 1-1-1-1-4v-7c-4 0-4 0-4-4l1-6c0-2 1-3 3-3h1c0-5-4-8-7-11l-1 1c0 2 0 2-2 2-3 0-5-2-6-5l-4-7c-1-1-4-2-5-1l-5 3-5 1v1c1 3 1 3-1 3-3 1-5 1-7-1l-6-4c-2-2-4-4-7-3h-1l1 2-8 3h-2l-2-1c-2 2-4 2-6 0l-6-4-7-1-1 3 1 3-2 2-4-1-6-1 1 1c1 4 1 8-1 11v2l1 1 1 2-1 2v1c0 2 0 5-2 7l1 2 3 5-1 2-3 1 2 3c1 1 2 1 1 2l-2 1c-3 0-5-1-6-4l-1-1-4 1a61 61 0 0 0-5 3l-2 5-2 4c-1 3-2 5 0 7l1 4 2 3 1-3v-7c1-4 4-5 8-4 2 0 3 1 5-1 2 1 2 3 2 4v6c-1 4-4 6-8 4h-1c0 3-2 5-3 7l-2 5-1 2-1 5-1 2v8l-2 4-1 2v4l6 8c1 1 2 3 1 5l-1 2h-2l-3-2-1 4a1 1 0 0 0 1 2l1 2 4 2 6 3 2 2-1-4-1-5-2-10-3-10-1-9 1-2c0-2 0-3 3-3 2 0 2-2 3-4l3-6 2 1v5c-1 2-2 5-1 8l-4 3c-1 0-2 1-2 3l1 7v2c2 1 2 3 2 5 1 1 1 3 2 2v-2l-1-4 1-2 3 1 1 3v18l-2 6 3 6-1 3-1 5 1 4c2 4 3 7 3 11l1 8v9l2 1c0 2-1 5-3 6l-3 2-1 1c-2 2-3 5-2 7l-2 5-2 2c-1 0-2 1-1 2l2 1 4-3v-3l-1-2 2-2h3l2 2c1 1 2 2 4 1l4-1h2v-12c-1-2 0-3 2-3 1-1 2 0 2 1l1 3c2 3 2 6 0 9l-1 7h1c2-1 3 0 3 1l-1 3h-1l-2-2c-1 3 0 4 2 4s2-2 3-3c2-3 2-6 1-8l-1-5-1-4c-1-4-1-7 1-10 1-2 1-4-1-5l-2-3v-2c1-2 0-4-1-5s-1-3 1-3l2-1v-2l1-3 1-2-2 2h-5l-1 4-1 4-4 4c-1 0-4-1-4-3v-15c1-2 1-2 3-1s2 1 3-1c2-3 3-3 5-2h4v-7c-2-2-2-5-2-7l1-12 2-2 1 2v4l1 2 2-1 2-1 1 3 1 3v9c-1 3 0 5 3 6 1 1 3 3 3 5l2 2h4c2 0 3 0 3 2l-2 3-2 1h-1v4c0 2 0 2 2 3h3c2 0 3 0 4 2 0 2-3 2-4 4 3 6 4 6 9 3 2 0 3 0 3 2l-2 4c-2 0-3 1-3 3v8c0 1 0 3 2 3l1-3v-5c1-3 3-4 6-3h2l1-1 3-6 2-3h4v3l-1 2c-2 1-2 3-2 5v2c0 3-2 6-3 8l-2 2c-4 0-5 2-5 5v1a2 2 0 0 0 2 3c2 1 3 2 2 4l4-1c4-1 5-4 3-8v-6a2 2 0 0 1 2-1l3 5 1 2 1 5c-1 4 1 6 3 9h1l1-2v-14c1-4 3-5 7-5l3-1 4-2 1 4v6c0 3-3 6-7 6h-3l2 2c1 2 3 2 5 1l2-3c0-1 1-2 2-1l3 3c0 3 1 3 3 3l1 1v-7c-2-1-2-3-1-5m-49-100c-3 1-5 0-7-2l-1-1-1 1 2 2v2l2 7v4c-1 2-1 4 2 5l1 2 2 5-1 2c-2 0-3 1-3 3h-3l-3-3v-18l-1-3-4-2c-2 0-5 1-6 3-1 1-2 2-3 1l-3-1 1-3 2-2c2-2 2-2 0-4l-3-4h-5c-2 3-2 6-2 9 0 4-1 5-5 6-2 0-2 1-2 2 1 2 0 4-2 5l-4 1c-1-1-2-2-1-3v-14l-1-3 1-2 3 2 1 2 2-1c0-1 2-2 3-1 1 0 2 0 2-2v-1l-1-2 1-5-2-4 1-3 2-1v-2a2 2 0 0 0-2-1c-1 1-2 2-3 0v-3c2-2 2-4 1-6l-1-2v-4c0-2 2-2 3-1l2 2 2 1 1-2v-1a5 5 0 0 1-3-9c1-1 2-3 1-4l-2 1c-2 1-3 1-5-1-1-1-2-2-4-1l-1-1c-1-1 0-4 1-6l5-2h2l-2-1v-4l-2-7-2-1-5-3-1-2c-2-2 0-4 2-4l2 1 3 3 4 2c3 1 4 3 3 6l1 1 1-1 2-2 2 2v1l1 3c1 1 2 1 1 2l1 10c0 3 0 3 4 2 0-4 3-5 6-7h5v-1l1-6v-6l-2-5-3-2v-2l2-1c2 0 6 4 6 6v10l1 2 1-1c3-2 3-2 1-5-1-3 0-7 3-9a4 4 0 0 1 7 3v3c1 1 1 2 3 2l-1-3c-1-3 0-4 2-6h4v4l-1 3-1 6v2l2 1 1 1 3 6 1-1a4 4 0 0 1 7 4c0 2 0 4-2 6v3c1 1 1 2-1 2h-3l-1-2-1 1c-2 2-3 2-5 2s-4-2-3-5c0-2 1-3-1-5v-3c0-1 0-3-2-3l-2 6 3 7 2 9v5l-1 5v15c0 2 0 3-2 3-2 1-2 2-1 4l1 5-2 1-3 1m20 7-1 1-3 2c-2 1-3 3-3 6l1 6c1 2 1 5-1 7l-2 4a5 5 0 0 1-8-1v-10l1-5v-3l1-1 1 1v1l2 8 1 2 2-2-1-6v-3c-1-3 1-5 4-7l2-2 1-1v-2l2-5v-2l1-1 2 1v6c0 2 0 5-2 6" class="st3"/><path id="Path_226" d="M815 268h1v-1l-1 1" class="st3"/><path id="Path_227" d="M824 250h-1l1 2 1 1v-1l-1-2" class="st3"/><path id="Path_228" d="M536 136v1c0-4 0-6-2-8l1 6 1 1" class="st3"/><path id="Path_229" d="m648 240 1-5 2-4c2-2 2-2 0-4s-1-3 1-4l3-1c1-2 1-2-1-3l-1 1h-3l-1-3 2-5 3-4c1-3 0-6-3-7l-3 1-1 6-3 4c-1 1-3 0-3-2l1-2v-4l-2-2-1-9-1-2h-2l-5 2c-2 2-2 3-1 5l3 5c1 2 0 3-1 3h-4l-2-2c-2 0-4-2-5-3 0-1-1-2-3-1-2 0-3 2-5 3l-1 4v4c-1 1-2 2-3 1l-2-3-7-12c-4 0-5 0-5-4l1-4c0-2 1-2 2-2h2l-1-3v-7l1-7 1-5 2-5v-6l2-1c3 0 5-1 8 1h1c1-1 2-2 3-1l1 3h1c4-4 7-8 9-13 0-2 1-3 3-3l3 1v-7c0-4-2-7-3-11l-1-2c-1-1-1-2-3-1v6c-1 2-2 2-4 1l-1-4-5-7h-4l2 1 3 3a2 2 0 0 1 0 3h-3l-5-4-2-1v3l1 4c1 2 0 4-1 4-2 1-4 0-4-2l-1-1c0-2-1-2-3-2h-2l-6-4c-1-1-3-2-3-5h-2c-3 2-2 2-2 5v11l-2 2c-2-2 0-4-1-6-3 0-4-2-5-3l-3-4c-2-2-2-2 0-4v-1l-3-1h-6l-4-1c-2 0-3-2-1-3 1-2 3-2 4-2l5-2c1-2 3-4 2-7l1-3c0-3-2-4-4-6l-6-4-1-1c2-2 4-1 7-2-3-2-2-5-2-7v-6l-1-5-1-2 1-2h2l3 4 1-1 1-2 1-2c1-1 3-2 4-1 2 0 2 3 1 4-3 3-2 6-2 10 1 3 0 6-2 9l-1 1h3l5-4 3-5h4v3l1 3a2 2 0 0 0 3-2v-2c1-2 2-2 3-1l3 2 4 5c3 3 7 3 11 2l1-1h-4v-2l1-2 5-4 2-1h4a2 2 0 0 1 3 4l-1 2c0 2 2 3 3 2 2-1 4-2 4-4l2-2c3-1 4 0 4 2s0 3-2 4c-1 2 0 3 1 4l3 1c3 1 5 1 8-1 2-1 2-2 2-4v-7l1-2h3c0-2-1-2-2-3-2-2-2-2-1-3l4-6c2-4 2-9 0-13-3-7-2-7-11-7-2 0-2 0-3 3l-1 1h-2l-3-3-3-1c-1 0-2 1-2 3l1 1 1 6-2 1c-1 1-1 0-1-1v-2c-1-2-2-3-4-2-2 0-3-1-3-3l1-2v-2c-2-3-5-5-9-6h-9c-4 1-6 4-5 8v2c1 2 1 4-1 5h-3v-3l-1-3-4-7-8-5-4-1-6-1-5 2-2 2 2 1c3 0 4 2 6 3v3l-3 1c-2-2-5-1-7-1-4-1-6 1-8 3l-3 5-4 2c-1-1-2-2-1-4l2-4 3-4-1-1a506 506 0 0 0-11 1l-3 1c-2 1-2 1-2 3v3l4 8 1 3v8l-2 4c0 3-2 6-4 9v6l1 1v-3c1-2 2-3 4-2 1 0 2 1 2 3v2l-3 10h-1v9l3-5 4-8 3-9 2-9a114 114 0 0 1 1-7c2 1 1 2 1 2l1 18-2 4-3 6-6 12-2 5v1h1l3-3v4l-1 4c-2 1-2 4-2 6v4l1 3v1c1 4 3 7 3 11l-1 2c0 2-2 3-3 2-2 0-2-1-2-2l-1-4h-2l-1 3-2 6-1 5h3c2 1 3 2 3 4v3c2 1 2 3 2 5v6c0 3-2 5-3 7h-3v-2a259 259 0 0 1-1 4c-2 2-2 5 0 7v14c0 5 1 10-1 15l-3 6v4l1 5v3l-1 4-2 3c3 1 8 2 11 0 4-2 8-5 10-9 0-2 2-2 3-2 2 0 2 1 2 3v4l1 1 1-1v-7l-1-5-2-8-1-1-1 1-1 3c0 3 0 6-2 10l-5 5c-2 1-4 0-5-2l-1-1c-1-1-2-3-1-5l2-4v-4c1-4 1-9-2-13l-1-4-1-2c0-2 1-3 3-2 3 1 4 3 5 5v3c2 1 2 3 2 6l1 2 2-2c0-2 2-3 3-2 2 0 3 0 4-2l2-1c4 1 6 6 4 10v3l1 5 1 5v6l-1 4-1 7-2 8v10l1 1v4a2 2 0 0 0 2 2c1 1 1 0 2-1 2-5 3-9 1-14v-9l1-13 1-2c-1-3 0-6 2-9l7-8c1-1 2-2 3-1 2 1 2 2 1 3 0 3-2 5-4 7l-2 4c2 0 4 1 5 3l3 3c2 2 5 3 8 2l7-5 3-4c1-2 3-2 4-2 2 1 2 2 2 3l-2 3-4 6h4l8-5c2-2 3-4 3-7l-1-3-3-4c-1-1-2-2-1-3a3 3 0 0 1 4-1c2 1 4 3 5 6l2 2 1-2c1-5 5-6 8-4 3 3 4 5 4 9v26l-1 13 1 4-1 3-1 2c4 0 7-2 8-5v-9l-1-6-1-3 1-9 1-3 2-4c3-4 5-8 4-12l-1-4 2-2h2l2 4a89 89 0 0 1 0 11l-5 9-1 2c4 0 8-2 11-6l-5 1m-39-106 3 1 1-1c2-1 3 0 3 2v9c-1 2-3 3-5 3l-3-3v-3l-1-4-1-2a2 2 0 0 1 3-2m33-78 4-6 2-4 1-1 1 1 1 3c0 3-2 5-4 7l-2 2h-2c-1 0-2-1-1-2m-26-14 1 2-1 1-3 4-1 1-1-1-1-2c0-3 4-6 6-5m-17 10c1-2 3-4 5-4s5 2 4 4c0 3-1 4-4 4s-5-2-5-4m-34-7a2 2 0 0 1 2-3l3 1c6 0 9 3 12 7a1 1 0 0 1-1 2h-4c-2-4-6-4-9-4s-4-1-3-3m10 168a2 2 0 0 1-1-3l4-7c3-3 3-5 0-8-2-2-4-3-7-3l-3 1c-3 3-5 6-6 10l-2 3c-2 1-4 1-4-2v-2h-2l-3 1c-5-1-6-2-6-7l2-6c1-2 1-2-1-3-3-2-3-4-2-7l1-1 2 1 7 6 4-6-2-1-2-3 1-7a3 3 0 0 1 3-2 2 2 0 0 1 2 1l1 2v1l3-1c2 0 2 0 3 2l-1 6-4 7-3 5 1 3 2-3 3-6 4-7 1-3v-7c0-3-1-6-3-8l-1-2-1-2-2 2c-2 2-6 3-9 1l-2-3 1-11c0-2 1-3 3-3l2-3v-6c1-2 2-2 4-2l1 3v7l1 3 1 6v3l2 1 5 1c2 1 3 2 3 4 1 2 2 2 3 2 4 0 8-2 10-5 0-2 1-3 3-4h2l1 4c-1 3-1 3 2 4l2 2-1 6-1 2v5c2 3 2 6 0 10l-4 6c-2 2-1 2-1 4 2 3 4 6 4 10-1 3-2 4-4 3l-2-1-1-2c-4 1-7 4-9 8a3 3 0 0 1-4 1m28 1c-2 1-4 1-5 3l-2 2v4l-2 8c-1 2-3 3-6 3-2 0-4-2-4-4v-9l-1-1c-3 0-3-1-3-3s2-4 4-4 4-1 5 1a2 2 0 0 0 3-1l8-4c2 0 3 0 4 2 1 1 1 3-1 3" class="st3"/><path id="Path_230" d="m775 250 1 4v-4h-1" class="st3"/><path id="Path_231" d="M721 89c-1-1-1-2-3-2v3l-1 6 2-2 4-2-2-3" class="st3"/><path id="Path_232" d="M256 17h4l5 3a3 3 0 0 0 4 0l4-2 1 1a23446 23446 0 0 0 56-1h4l9 3c2 0 3 2 4 4l3 2c3 1 7 2 9 4 4 3 7 6 8 11 0 2 1 5 4 6l1 1 2 5a30056 30056 0 0 0 47-3h1a15 15 0 0 0 6-1l7-1h2c3 0 6 2 10 4l2 3 3 2c4 1 7 1 10 3l2 2v-1l2-8 2-6 4-7 7-6c2-1 5-3 8-3h5l1 1h3c2 2 4 2 6 2h5c3 0 6 0 8 2h5c1-3 3-4 5-6 2-1 4-3 7-3 3-2 5-2 8-2h5c2 0 3 0 4-2l5-2h4c1 0 3 0 4-2a17 17 0 0 1 7-2h10l3 1 4 2h8l4 1 3 1 2-1 4-1 4 1 4 1h3c1-2 3-3 5-3l7 3c2 1 4 3 5 6l2 1 2 1 3-1 7 1c5 0 7 3 9 7 2 2 2 4 2 7h1l3 1 2-1 4-1h1a22067 22067 0 0 0 59-1h4c5 0 10 2 13 7l4 3c2-5 6-8 10-11l2-1a205 205 0 0 1 11-4h9l3-1 6-4h2a11 11 0 0 1 10 0l5 1 5-1 3-1 3 1 2 1 2-1 3-1h1l7 1h1l5 2 3 2 3-1a7 7 0 0 1 3-1h6c5 0 8 2 11 5 3 2 5 4 6 7h1c0 4 4 6 5 10l5 10 1 4 2 5 2 5 1 1c2 2 1 5 1 7l-1 3v6l3 9v7l-2 5c-4 4-8 6-13 6h-3l-2-1-3 2 8 8c1 2 3 4 3 7l1 2 1 5 1 4c4 4 3 9 3 14l-1 1c-2 3-2 6 0 9s3 6 3 10l-1 7c1 2 0 5-1 6v12l-1 8-1 10c1 3-1 6-4 8l-3 4c0 5-3 9-6 11l-12 6a15 15 0 0 1-8 0l-1-1-2 1-6 3-2 1c-2 2-5 3-8 3h-5c-2 0-2 0-3 2l-2 5c-2 3-5 4-8 5h-7c-4 0-7-2-8-5l-2-5-2-1-1 1-1 3-7 7a14 14 0 0 1-9 4l-3-1-2 2a13 13 0 0 1-15 3l-6-6-5 5-7 3h-2c-4 0-6-2-9-4l-3-3-2-1h-1l-1 1-2-1-2-1c-2 0-4-1-5-3l-3-1c-5-1-8-5-8-9a555 555 0 0 1-1-11c-3-4-5-8-5-13 0-3-2-5-4-8l-2 3c-1 3-2 6-1 9l1 7 1 2 1 2 1 7v5c0 4-2 7-5 10l-2 1h-12a21 21 0 0 0-4 0h-3c-3 0-5 0-7-2h-4l-5 4c-3 3-6 6-11 6h-5l-7-2h-3c-3 0-6-1-8-3l-2-3c-2-3-4-7-3-11v-5l2-6v-5a2 2 0 0 0-1-2h-1l-15-1a34 34 0 0 0-5 1l-8-1a141 141 0 0 0-8 0l-3 3-2 5-1 4v5c0 6-3 10-8 12-2 2-4 2-7 2-4 0-9-2-11-6-3-5-4-10-4-15l1-3c0-2-1-4-3-4a24 24 0 0 0-7 1l-6 2c0 5 2 11 0 16-1 3-3 4-6 5l-4 1-3 1-5-1a10 10 0 0 0-5-2c-2 0-3 1-3 3l-2 6-6 3h-3c-2 2-6 3-9 3l-5-1-3-2-3-3-3 3a19 19 0 0 1-12 6c-3 0-5-1-8-3l-2-2-3-2h-3c-2-1-6 0-8-3l-4-2c-5 0-8-4-8-8a376 376 0 0 1-2-11c-3-3-5-8-5-12-1-4-3-6-5-9-3 4-4 8-3 12l3 8v2l1 2 2 8v4c0 4-2 7-4 9l-3 2a32 32 0 0 1-11 1h-9l-5-1-2-1-2 1c-2 0-4 1-6 4-1 3-5 6-9 6l-6 1h-1c-4 0-7-2-9-6-3-3-3-8-1-12l1-1c-1-2 0-5 1-6l1-2 2-13a27 27 0 0 0 1-10l-6 3h-2c-3 0-6-2-8-4l-2-2-3-2-2 1h-1c-2-2-6-1-8-4l-3-2c-4-1-7-4-7-8v-8l-1-3c-3-3-5-7-5-12 0-3-2-5-4-8-3 3-4 7-3 11 0 2 0 5 2 7v4c2 3 2 6 2 8a222 222 0 0 0-1 9l1 2v3l1 5c2 2 2 4 0 6-1 2-2 4-5 5l-3 2-4 1a14 14 0 0 1-4 0l-6-2-3-1-1 3c0 3-2 4-4 6h-1a86 86 0 0 1-9 3c-3 0-10-3-11-5a40 40 0 0 1-5-9l-3-2-8-5c-2-2-4-5-3-9l-2-5-1-5-3 1h-2l-4-1-3-1-4 1a27 27 0 0 1-18 2c-2 0-4-2-5-3l-3-1h-1c-1 0-2 1-2 3v7c0 3-2 6-4 8l-5 4-9 5-7 5a11 11 0 0 1-10-1l-5-3h-1l-2-1h-2l-2 1-4 4-7 4-6 1-1 1-4-2-2-1h-1l-2 1c-2 3-6 5-9 7a22 22 0 0 1-8 1c-4 0-7-2-10-4l-5-6-4-2-9-2-3-1-4 1-7 2-6-1-2-1-2 1-5 1c-3 0-6-1-8-3l-2-3-1-3v-7c0-4 2-6 4-8l2-6-4-3-2-3v-6l1-1 3-8 1-3 1-7v-5l-1-5-1-7 2-6c1-3 1-6-1-8-2-4-4-8-3-12l2-4v-3l-3-4-1-5v-8l1-6 1-4a124 124 0 0 0-1-13c-2-4-2-9-1-13a45 45 0 0 1 3-7v-5c-2-3-3-8-2-12l1-5-1-1-2-4c-2-2-2-4-2-7v-7l1-4 3-6c2-5 6-8 10-10 2-2 5-3 8-2h7l2 1 4 1 3-2h1l7-1 8 2 2 1 2-1 7-2h3a9 9 0 0 0 2 0h1c3 0 5 1 7 3h4a5 5 0 0 1 5 0l2 1 2-1 7-2 7 2 3 1 3-1 5-1 5 1 5 3c4 1 7 4 8 8l3 6c0 2 1 3 3 3l6 5h1l1-4 3-6c2-3 3-6 6-7l2-1c2-2 4-3 7-3l1-1 5-1h4l4-1c3-1 5-3 9-3h3a11 11 0 0 1 9 3l5 2h6c3 0 7 1 9 4v-1l1-3c2-6 6-10 11-13 2-2 5-2 7-2m0-12c-4 0-8 2-12 4-5 3-10 7-13 12h-8a22 22 0 0 0-16-5l-2-1c-6 0-10 2-12 4l-2 1h-3c-3 0-6 0-9 2l-9 3v1l-2 1-8 7a31 31 0 0 0-17-14l-1-1c-3-2-7-2-10-2l-7 1-11-2c-3 0-6 0-9 2a16 16 0 0 0-8-1 22 22 0 0 0-11-2h-5c-3 0-6 0-9 2l-10-2h-7l-5 2-5-2h-1c-1 0 0 0 0 0h-6c-5 0-10 1-14 4A34 34 0 0 0 9 36l-2 5-2 7v10c0 3 0 8 4 12-1 6-1 12 2 18l-1 1-1 4c-3 8-2 15 0 21l1 8-3 12v3l1 4c0 4 1 8 3 11l-1 2c-2 8 2 15 4 19l-2 10v8l2 7-2 8-1 4-1 2-2 7v6c0 3 1 7 3 9l-3 8v13a20 20 0 0 0 7 12 24 24 0 0 0 22 4l8 1 11-2 8 2h1l1 1 3 4a25 25 0 0 0 20 8l10-3 9-5h9l3-1h1c6-1 10-4 12-6h1l1-1 2 1a22 22 0 0 0 20 2l10-6 1-1 6-4 9-6 5-11a36 36 0 0 0 23-3l3 2c0 7 4 12 7 15l9 6a22 22 0 0 0 2 3l4 6c1 1 3 4 10 7l10 2h2l8-2 2-1 6-3 3-3a30 30 0 0 0 5 0h4l5-2h1l4-1c5-3 8-7 10-10s3-6 3-10c2 2 4 3 7 3l1 1 4 1 1 1c3 3 7 5 11 6a122 122 0 0 1-4 15c-3 7-2 16 3 22a22 22 0 0 0 20 10h6c7-1 13-5 17-10h19l10-1c3-1 7-3 9-6l3-3 6 2a20 20 0 0 0 10 5l5 1 1 1c4 2 9 6 15 6l7-2 9-4c3 2 7 2 10 2 5 0 9-1 12-3 7 0 11-4 13-6l3-3h5l7-1 5-2c2 0 7-2 10-7 5 8 13 13 21 12 5 0 9-1 13-3 9-5 14-13 13-23a19 19 0 0 1 1-5 80 80 0 0 1 10 1h9v6c-1 6 0 12 4 18h1l4 5a23 23 0 0 0 16 6c3 2 6 2 9 2h6c7 0 13-3 18-9l8 1h4a14 14 0 0 1 2 0 59 59 0 0 0 15 0c3 0 6-2 9-5l3-3 6 2c3 3 6 4 9 5l6 2 1 1c2 2 8 7 16 7l5-1 9-4 1 1 11 2c5 0 11-2 15-5h1a26 26 0 0 0 16-7c3 2 8 4 12 3h9a23 23 0 0 0 17-12c3 0 9 0 14-5l1-1 2-1a25 25 0 0 0 12 0c6-1 11-4 16-8s9-10 10-16c5-4 8-10 8-17v-9l1-4v-13a23 23 0 0 0 2-10v-5c1-6-2-12-4-15l2-5v-1c1-5 1-12-4-19l-2-9-2-5 9-6 5-9a20 20 0 0 0 0-10c0-5-1-9-3-13l1-5v-1c0-2 1-7-2-12l-4-7-2-7-2-4-2-5a24 24 0 0 0-5-9l-2-4-7-8-1-1a27 27 0 0 0-21-8 34 34 0 0 1-4 0 28 28 0 0 0-5 0l-9-3h-1a114 114 0 0 1-8 0l-5 1a16 16 0 0 0-13 1c-3-2-7-3-10-3l-9 2-9 4h-7l-7 1a215 215 0 0 0-12 7l-5 4c-5-4-11-5-16-5h-10l-1 1h-1l-3-1-5 1h-4a10659 10659 0 0 0-42-1l-6-8c-4-3-8-4-12-4a116 116 0 0 1-7-1c-2-3-5-5-8-6-4-2-7-4-12-4l-8 2-8-1-6 1-7-2h-7l-7-2h-11l-7 1-5 3h-3c-4 0-8 1-11 4h-3c-4 0-8 0-11 2l-10 4v1l-4 2a31 31 0 0 0-13 0c-2-2-5-2-8-3h-7c-6 0-10 2-13 4l-1 1c-4 2-7 5-9 8l-6 8v1l-2 4-4-4a30 30 0 0 0-18-5h-2l-7 1-2 1-2-1-6 2h-5a14564 14564 0 0 0-29 1l-3-3c-2-8-8-14-12-17-2-2-5-4-9-5h-2l-7-7c-3-1-8-4-14-4l-2 1h-2a23 23 0 0 0-6 0h-4l-5 1h-4a9790 9790 0 0 0-46 0V7l-9-2" class="st1"/><path id="Path_234" d="M287 229v-4 4" class="st2"/><path id="Path_235" d="M327 127c-2 1-2 1-2 3 2-1 2-1 2-3" class="st2"/><path id="Path_236" d="m353 216 4-2 1 4v6a6 6 0 0 1-6 6l-2 2c2 2 3 2 5 1l2-3c1-2 1-2 3 0l2 3v1l4 1v-6c-2-1-2-3-1-4v-2c-2-2-2-4-1-6v-2c-2-2-3-4-6-4-4-1-4-1-3-5l-1-2-3-3-1-1c-1-2-1-3 1-5l1-2-2-3v3l-3 2c-2 0-2-1-2-2v-1c0-4-1-7 1-10l1-3c-3 0-4 0-4-2l1-3h3l-3-3-4-3-1-2c0-2 1-3 3-3l4-2c2-1 1-2 2-4 0-3 0-4 4-4a2 2 0 0 0 2-2l-1-3c-1-2 0-3 2-3l2 2 2 1 3-1a1 1 0 0 0 0-3l-1-4-1-3-2-5-1-8c-1-2-2-4-4-4l-2-1c-1-4 0-8 1-12l1-5-3 1c-1-2-3-4-3-7l-1-3v-2l2-11c0-3 1-3 3-3h1v-5h3c1 3 4 10 3 11h-2l-2-1c-4 4-3 7-3 11h3c1 2 3 3 3 5v8l1 4 1 3-1 3c0 2 0 4 2 5v2l1 2 1 5 1 3c2-1 3-2 2-4 0-2 0-5 3-6l1-2-2-3-2 4-2 1-2-2v-2l3-7c2-2 1-5 3-8-3 0-3-2-3-4l-1-2c-2-2-2-5-2-8v-3l-1-4c1-2 2-3 3-1l2 2c2-3 3-4 1-5-2-2-2-4-1-6l-1-5c0-1-1-2-2-1v2l-1 2-1 1-1-1v-4l-1-6c-3 0-3 0-3-3v-7l3-2h2l-2-5-3-3c-1-1-1-3-3-3v2l-1 1c-2 0-3 1-4-1l-3-4c0-2-2-5-4-6-2-2-4-2-6 0l-2 1h-1l1 1 2 1c2 0 3 2 4 3v4h-4l-3 3v4c0 2 0 2-2 3a80 80 0 0 1 0 8 4 4 0 0 1-7 2c-3-2-5-4-5-8v-3l-1-3-5-2-4-5 1-2a2 2 0 0 1 3 1l5 4c3 2 5 4 5 7-1 1 0 3 2 4v-2l1-2 3-6c0-2-5-1-6-2l-2-3-1-2-6-5-4-2h-3c0 2 0 2-2 3l-4 1-2 1-1-1v7l-1 6v2a1 1 0 0 1-2 1l-3-4-1-2-1-8 1-2h-1l-5-5h-8v4c1 3 0 3-2 3l-3-1c-3-1-5-1-8 1l-2 1-1-2 2-4c1-1 0-3-1-3h-6c-3 1-5 3-7 6-1 2-1 2 1 3l1 1-1 1c-1 2-2 4 0 6v3h-5c2 3 3 5 6 5l2 2-1 3-2 1-2 1 3 4 1 2 1 2c2-1 4-3 5-6l2-8 5-5c2-1 3-1 3 1l-1 2-3 4v2l2 3 3 6c1 1 0 2-1 2l-3 1 3 3 1 1-2 1c-2 1-5 0-7-2l-1-3-5 3-3 1-2 5-2 5 1 6 3 3v-7c1-2 3-4 5-3h6l2-1 1 4v6c0 3-3 5-7 4h-1c0 3-2 5-3 7l-2 3v1h1l2 11 4-2 3-6h2v5l-2 7c0 3 0 3-3 3l-1 1v1l2 3 2 6h1c2 1 3 2 3 4v9l2 5c2 2 2 6 2 9v1c2 3 2 7 2 11l2 4 2 2c2 3 3 6 2 9v2c0 2 1 3 2 3l6 5-1-1v-2l-2-5c-1-1 0-2 1-3h3v-1c-1-2 0-4 1-5v-4l-2-4 1-5-1-3-2-4c1-4 2-3 2-7 0-2 3-2 4-1 2 2 3 0 5 3v9c-1 4 0 5 3 7l2 3c1 2 1 3 3 3h4l3 1-1 3-3 1-1 1-1 4 2 2h3l4 2c0 2-2 3-3 4l1 3c1 2 3 2 4 2l3-1c2-1 3-1 3 1s-1 3-2 4c-3 1-3 1-3 4v7c0 1 1 2 3 2v-7c1-3 3-4 6-3h2v-1l3-6 3-3h4v3l-2 2-2 4v3c0 3-2 5-3 8l-2 1c-3 0-4 2-4 4v2l1 3c2 0 4 2 3 4l4-1c3-2 4-4 3-8l-1-5a2 2 0 0 1 3-1l2 3a31 31 0 0 1 2 7v3c0 2 2 6 4 7l1-3v-13c1-3 3-5 6-4 2 0 3-1 3-2m-44-67-2 8c-1 2 1 4 1 6 0 3-3 2-3 5 0 1 0 2-2 2l-2-2-1-4v-10c1-2 3-1 3-3l-4-3c0-2-2-2-3-3l3-3 2-2c1-2 4-1 6 1s2 5 2 8m0-19h-2l-4 1h-5a2 2 0 0 0-3 1l-2 2c-3 2-8 3-10 1-2-1-2-4-3-6l-1-2-1 1a4 4 0 0 1-7-3c0-2 0-4 2-5v-6h3l1 2 2-1c1-1 3-2 4-1 3 0 4 2 4 4v8l2 3c2-2 2-4 2-6l-2-6-3-9 1-6 1-4v-5l-1-4v-5c0-2 0-3 2-4 2 0 2-1 1-2l-1-5c1-1 1-2 3-2h2l8-6h3l4 1c2 0 6 5 8 7l2 3c2 1 4 2 6 0l1-1c3 0 4 1 4 3v6l1 2v2c1 2 0 3-2 2h-1v2c0 2 1 2 3 1h2v3c-2 3-2 5 0 8v4a2 2 0 0 1-2 1l-2-2-2-1-1 2v1a5 5 0 0 1 2 8v5l2-2c2-1 2-1 4 1 1 1 2 2 4 1l1 1v5c-2 2-3 3-6 3l-2-1v2c-1 4-5 6-8 4l-2-2v-9c0-3 0-3-4-2 0 3-2 5-5 6h-3m27 56-1 4-1 2c-1 2-3 3-6 3-2 0-4-2-4-4v-2l-5-1-1-2v-5c0-2-1-5-3-7l-1-3a32 32 0 0 1-2-10 2 2 0 1 1 3 0l2 4v3l1 4 1 1 4 4 2 1 6 1v-3c0-3 1-4 3-5l2 1v14m3-29-2 2a4 4 0 0 1-6 0q-2-2-2-6l3-8 2-1 4 1c1 0 2 0 2-2l2-2a2 2 0 0 1 3 2l-1 6-1 2c0 2-1 4-3 4l-1 2" class="st2"/><path id="Path_237" d="m258 156 1 3c1-2 0-3-1-3" class="st2"/><path id="Path_238" d="M285 206v-5l-1-1 1 4v2" class="st2"/><path id="Path_239" d="M260 140" class="st2"/><path id="Path_240" d="M277 230c-2-1-4-1-4 1 0 4-2 7-5 8l-2 4h3l5 1 4 1 3 3c2 2 4 1 5-2v-5c-1-5-5-8-9-11" class="st2"/><path id="Path_241" d="m133 243 1 1h2l1-1-2-1a1 1 0 0 0-2 1" class="st2"/><path id="Path_242" d="M622 226c-1 2-1 5 2 7 0-4 0-6-2-7" class="st2"/><path id="Path_243" d="M504 259a20 20 0 0 1-8 0c-1 3 0 5 3 5l5-4v-1" class="st2"/><path id="Path_244" d="M584 182a6 6 0 0 0 4-9c-2-2-3-3-6-2h-4c-3 0-3 0-3 4-1 1 0 2 1 3l1 2 1 2c1 2 2 2 3 1l3-1" style="fill:#fcee22"/><path id="Path_245" d="m252 139 1 1v-4l-2-5-1-1-1 1c-1 3 0 7 3 8" class="st2"/><path id="Path_246" d="m525 165-1-3-1-2-2 2v2c-1 2-2 3-4 3-1-1-2-1-2-3l1-4 4-9 2-5 4-7v-11l-1-6c0-2 0-5-2-8v-1l-1-3-1-6c0-2 1-3 3-2l3 1 3-7v-3l-2-5c-1-1-1-2-3-2v5l-2 2-2-2-1-4v-2l5-11c3-4 4-10 5-14v-1c0-2-1-3-3-3l-2-1-1-5 1-2c1-1 1-2-1-2s-4 1-5 3c-1 3-2 3-4 1l-3-4-5-1-2 2-1 1-7 4h-2l-2-6c1-2 0-4-2-4h-4c-4 2-7 5-9 8l-1 1 5-1c1 0 2 1 1 2l-2 3c-2 2-2 6-1 9l1 3c0 1-1 2-3 1-1 0-2-1-2-3l-1-5v-3l-2 1c-2 6-1 10 3 15 1 2 4 3 6 2h2l3 3c0 2-1 3-3 3h-2c-1 1-2 1-2 3 3 1 3 1 3 5v5l-1 3-1 4h-1l2 3v8c-1 2-2 4-1 6l1 2v2c-1 4-1 8 1 11l2 7c2 2 2 5 2 7l-1 9v9c2 4 0 8-2 11l-1 1v1l-1 2-1 1-1 7-1 1c0 3-1 6-3 8h1l4 2-3 3c-1 0-2 1-1 2v5c-2 2-2 5 0 7v1l-1 3h-2l-2-1h-1l1 3 5 3c2 0 3 2 2 4l-2 1c-2 1-2 2-2 3v1c2 2 4 4 4 7l2 2 5 6 2 3 2 7 1 2v-1c0-3 1-6 4-7 2-2 2-2 1-4s0-3 1-4a2 2 0 0 1 3 0l3 4h5c2 0 4 1 4 4 0 2 0 4-2 6v5h5c-2-1-2-1-1-4l1-2 1-4 1-3v-3l-1-1c-3 0-3 0-3-3l1-2 4-4c3-4 3-8 0-11l-1-3v-2l1-2c4-3 5-6 5-11l-1-7-2-6-1-1-1 1v1a3 3 0 0 1-4 2c-1-1-2-1-1-3v-8l-2-7c3-2 3-2 5 1l2 3c1 1 2 2 3 0l2-4 1-4c2-3 2-8 1-12m-4-27 1-1c2 2 1 4 1 6l-2 3-2 2c-2 0-3-1-2-2l4-8m-6-22h4l-1 3c-1 2-1 4 1 6l1 2-1 2h-3l-1-2-2-2-1 1c-1 1-3 1-3-1v-5c0-2 0-4 2-6v-2a447 447 0 0 0 3-11c1 0 2 0 3 2 1 3 1 5-1 8l-1 5m-22-56h4c3 2 3 3 2 6-1 1-2 2-1 4 2 0 2-1 3-2v-4a5 5 0 0 1 7-2c3 2 4 6 3 9-2 3-2 3 1 6l2 1v-2l1-11c0-2 4-7 6-7l2 2v3l-3 2-2 4a212 212 0 0 1 0 13 7 7 0 0 1-8 6c-3 0-5-2-5-5V71c-2 0-2 1-3 2-1 2-3 4-6 3l-2-2v-7l-1-3v-4m-7 46-2-2 1-3h3l4 2c4 0 6 3 4 6l-1 3c-1 1-1 2 1 3l3-5 2 2v8c0 2-2 4-4 5-2 0-5 0-6-3v-13c0-2-1-3-3-3h-2m10 108v2c-2 1-2 3-2 5l-1 2-2 6-2 1c-1-2-2-5 0-7l1-4 1-12-1-4h-3c-2 0-3-2-3-4a1637 1637 0 0 1 2-18l1-16v-5l1-2c2 0 2 1 2 2l1 2v3c2 5 2 10 0 15v2c1 0 2-1 3 1v3c-2 3-2 5 0 7v4a240 240 0 0 0 2 10v7m1-52c-1-3-1-6 1-10l1-5 1-3 1-1 1 1v10l2 2 2-2v-9c0-4 2-6 5-8l2-1h4c1 1 0 2-1 3l-3 3c-2 0-3 2-4 5v6c1 3 1 5-1 8l-3 4a5 5 0 0 1-8-3m14 68c2 4-1 8-5 8h-2c-2 0-3-1-3-3l1-9c2-2 1-4 0-7v-3c0-2 1-2 2-2 2 1 3 3 3 5v3l-1 7-1 1 1 2 2-1v-1h3m1-56q-3 1-3 3v4l-2 5c-2 2-4 1-6 1l-3-4v-6c1-2 2-3 5-2l2 1c1-5 0-5 6-7h2c2-1 2 0 2 1 0 2-1 4-3 4" class="st2"/><path id="Path_247" d="M480 263v-2c-2-2-2-4-2-7v-1c-1-2-3-4-6-4-4 0-4-1-4-5 1-2 1-2-1-3l-3-2-1-1c-1-2-1-3 1-5l1-2c0-1-1-3-3-3v2c0 1 0 3-2 3-1 1-2 0-2-1-1-4-2-9 0-13v-3h-3v-4c0-2 2 0 3-1l-3-3-4-3h-3l-2 4v4c0 3-2 6-6 7-2 0-5-2-6-4v-4l-3-3h-1a2 2 0 0 1-1-2c0-3 1-3 4-3 2-1 3 0 5 2s3 2 4-1l7-6c1-1 2-1 2-3l1-1 2 1v3l4-2v-5c0-2 1-3 3-3 3 0 4-1 3-4l-1-1v-3h2a6 6 0 0 1 4 2l2-1c2-1 2-2 1-3s-2-3-1-5l-1-2c-2-1-3-4-3-6l-2-7c0-2 2-5 3-4l1 2 1 2c1 2 2 3 1 5l1 4 2-2v-3c0-2 0-4 2-6s2-2 1-4l-2-1c-1 0-2 1-2 3l-2 2a2 2 0 0 1-1-3l1-4 4-12c-3-1-4-3-4-5l-1-2c-2-2-2-5-2-8l-1-4-1-5h3l3 2c1-2 2-3 0-5s-2-4-2-7v-4l-3-2v5l-2 1-1-1v-3l-1-8c-4 1-4 1-4-3v-6c0-2 2-3 3-3h2c-2-2-1-5-4-6l-5-5v1c0 2 0 2-3 3-2 0-4-2-5-5l-5-7h-5l-5 2-5 2 1 1c0 2 0 3-2 3l-3 1c-4 0-6-3-9-4l-5-4h-4l1 3-7 3h-3l-2-1c-2 2-4 2-6 1l-6-5h-8l1 6v2l1 2c1 3 1 5-1 8l-1 6 1 3c-1 4-2 7 0 11l2 6 1 8-1 8-1 4v4c2 5 0 8-3 11l-2 5-2 6-1 1c0 3-2 6-4 7 0 3 0 3-3 4-1 1-2 1-2 3 1 3 6 7 8 8l2 4 1 17c0 3-3 4-4 3l-2-4-1-7-4-7-4-10v-3l-1 1v3l1 6v3l1 3h1l2 6 3 6c1 2 3 4 3 7l1 2 6 6 1 2 1 7h1c2-1 3 1 4 2v5l1 2v9l-3 4-5 6c-4 4-9 5-14 3l-3-3 1 6-1 3c-3 2-4 5-4 7l-1 8v3c1 0 2 2 1 3 0 4 2 6 4 9h1l1-7-1-12c0-3 0-6 2-8s5-1 6 1v3l2 1v-4c0-4 2-7 5-9l4-3a2 2 0 0 1 2-1l2 2c0 2 0 4-3 6-4 2-6 6-5 10l-2 5-2 2v2l2 1c2 0 3-2 4-3s0-2-1-3v-4h4l2 1c2 2 2 2 4 1l4-1h2c1-5 1-9-1-13a2 2 0 0 1 2-3c1 0 2 0 3 2l1 2c2 3 2 6 0 9v7h1l2 1v3h-2l-1-1c-1 2 0 3 2 3s2-2 3-3c2-3 1-6 0-9l-1-4-1-4c-1-3-2-6-1-9 2-3 1-5-1-7l-1-2v-2l-2-4c-1-2-1-3 1-4h2l1-6c1-1 1-3-1-5l-1-3v-6l-1-3-2-6a229 229 0 0 1 1-15c2 0 2 1 2 2l1 5c0 1 1 2 3 1l1-2c2 0 2 1 2 2l1 4c1 3 2 5 1 8-1 4 0 5 3 7l3 3c0 3 1 3 3 3h5c2 0 3 1 1 3l-3 3h-1v4c0 2 0 3 3 3h4c3 1 3 2 1 3l-2 3 2 3c1 1 2 2 4 1l3-1c1-1 2-1 3 1 0 2 0 3-2 4-3 1-3 2-3 5l1 2v5c0 1 0 2 2 2l1-4v-4c0-3 2-4 5-3h2l1-1v-1l4-8c2-2 4-2 5-1v4h-1c-2 2-3 5-2 7 1 4-1 7-2 10l-3 1c-3 1-4 3-3 5v2c-1 1 0 2 1 3l3 1v3l4-2c3-1 5-4 3-7-2-2-2-4-2-6l2-2 2 1 2 3a28 28 0 0 1 2 7c0 4 2 6 3 9l2 1 1-2-1-4v-10c1-4 3-6 7-6l2-1 4-3 2 4v6c0 4-2 6-6 7h-4l2 2c3 3 6 2 7-1 1-4 2-4 4-1l2 2v2h4c1-2 1-4-1-6-1-1-2-3-1-4M432 84h5l2 1 2-3a4 4 0 0 1 5 0l2 2 3 2c3 1 3 2 1 4-1 2-3 3-5 3h-2l-2 6c-1 3-3 2-5 3l-4-2v-8c1-2 0-3-2-3l-1-2c-1-2 0-3 1-3m-19-9h2l4 3 1 2 1 9c0 3-2 5-5 5-2-1-3-1-3-3V75m-30 65c-1 1-3 1-3-1v-5l2-5v-1l1-1 1 1 1 5c1 3 0 5-2 7m3-44-2 4c-2 2-5 1-6-2V85l-1-3 1-2c1-1 2 0 2 1l2 2 1-1c1-1 2-2 4-1l2-2c0-3 1-3 4-2-2 3-1 6-1 9v2c0 2-1 4-3 4-3 1-3 1-3 4m28 108-2 3c-1 2-2 2-4 1-2-2-3-5-4-9v-12l-2-8c0-2 1-2 2-3l2 2 2 4 1 7v2c0 2 0 4 3 5l2 2 1 4c1 1 0 2-1 2m10-44c1 4-3 5-5 7h-1c-3-1-5 1-7 2-3 1-5 2-7 0l-2 1-3 2c-2 3-7 4-10 3l-1-2c-1-2-4-14 4-11 2 1 1 2 1 3l2 3c2-2 2-4 2-5l-3-8-3-9v-5l1-5v-5c-2-1-2-3-2-4v-6c0-2 0-3 2-4s2-1 1-3l-1-5 2-2h2c4-2 6-1 9 2l1-1v-3l-2-2 1-3h2l3 1c3 1 6 0 8-3l2-1c1 0 2-1 3 1v3l-3 2v4l3 3c2 2 4 2 6 1l2-1c2-1 4 0 4 2v6l1 3 1 1c0 3-1 3-3 3h-1l1 2c0 2 1 2 2 1h3v3c-2 3-1 5 0 8l1 4c0 2-2 2-3 1l-2-2h-2l-1 2v1c4 1 6 4 6 8l-2 7c-1 1 1 4 2 7h2l2-3 3-3a4 4 0 0 1 5 2l1 3c2-1 1-2 1-3l-1-4c1-3 1-6 4-8 2-2 2-2 5 0l-2 4-1 3v8c0 2-1 5-3 6s-5 1-7-1l-1 2-1 7-3 2c-4 1-5 0-6-4v-5h-6l-1-2-1-9c0-3 0-3-4-2" class="st2"/><path id="Path_248" d="M395 196v6c2-2 2-3 0-6" class="st2"/><path id="Path_249" d="m385 273-4 1-1 1 1 1 2 1 3-1v-2l-1-1" class="st2"/><path id="Path_250" d="M60 38c-1 0-4-1-5 2l11 1c-2-3-3-4-6-3" class="st2"/><path id="Path_251" d="m54 99 1-1v-6c-2 2-3 4-2 6l1 1" class="st2"/><path id="Path_252" d="m243 107-3-5-5-4h-2l2 4c3 2 5 5 5 8l1 2c1 3 1 4-2 5a2 2 0 0 0-2 2v8c0 1-1 3 1 5 2-4 4 0 6 1l1-9v-9c0-3 0-5-2-8" class="st2"/><path id="Path_253" d="m71 244-5 1c1 2 3 2 5 2l1-2-1-1" class="st2"/><path id="Path_254" d="M240 96v-2 2" class="st2"/><path id="Path_255" d="M85 236c-2 1-3 3-2 5v3l2-1 2-3v-3l-2-1" class="st2"/><path id="Path_256" d="M120 247v3a2 2 0 0 0 2 0l4-4-6 1" class="st2"/><path id="Path_257" d="M160 238a24 24 0 0 1 0 2l2-1v-2l-2 1" class="st2"/><path id="Path_258" d="m245 237-3-1-2-2-1 1 1 1 1 5 2 5a2 2 0 0 0 3 0l1-6c1-2 0-2-2-3" class="st2"/><path id="Path_259" d="M267 226c2 0 3-2 3-4l-2-5 1-4c2-1 4 0 4 2l1 1a1 1 0 0 0 2 1v-2c2-3 2-7 1-11-1-3-3-5-6-6s-3-2-3-4v-5l-1-1-2 1 1 4v3a184 184 0 0 1 0 11 1 1 0 0 1-2 1l-3-6-2-6c-3-3-5-7-9-8-2-1-2-2-1-3l3-1 4 2 3 1v-2l2-17c1-2 0-4-2-5v5c-1 2-2 2-4 2l-1-3v-4l-1-4c0-2 0-4-2-6s-2-4-1-6v-1l-3-3c-3-1-6-3-7-6l-1-1-1 2c0 1-1 2-3 2l-1-2-1-2c-2-2-2-5-2-8 0-5 2-9-1-14v-3c2-1 2 0 3 1h3l-2-2-10-14v-8c0-2 1-2 2-2l8 3c2-1 3-2 2-4 1-4 1-9-1-12l-2-2-2 2c-1 2-2 2-4 0l2-3 4-9c2-2 2-5 2-7-3 1-5 0-6-2l-3-4-1-2v-3h5l-6-4c-1-1-2 0-2 2l-1 2-1 2-2-1-3-4c-2-1-3-3-5-3l-8-1a1 1 0 0 0-2 2l5 4 2 2c1 2 0 3-2 3l-4-1c-1-1-2-2-4-1l-2 2c-1 3-3 4-6 4l-3 1-1 1c-2-3-2-5 0-8l3-4h-6v2c1 2 0 3-1 4l-6 8c0 2-1 2-3 1-2 0-3 0-2 2l1 17v2l3-1h3v3l-4 7-5 5a321 321 0 0 1 3 7l5-10 2-7v-2l3-4 1-1 2 1-1 6-1 3c0 4-2 6-3 9a70 70 0 0 1-8 12v1h1a2 2 0 0 1 1 3l-2 5-1 3-1 10v4l-1 6-1 2c-1 6-4 10-8 12l-3 2 3 2 4 2 1 1 2 7v5l-1 8-2 8v13l1 6 1 6v1h2c2 0 2 1 2 3l-2 3h-2v1c1 3 0 6-2 8l-2 4c4-4 8-8 9-14a3 3 0 0 1 5-2l1 2h3l1-1 2-2 7 1 6 5c3 2 6 2 9 0l5-5 2-1c2 1 5 1 6 3l2 2h2l1-2-2-2-2-2c-1-1-1-3 1-4 1-1 2-1 3 1 3 2 5 6 6 10 0 2 2 4 4 4l7 3 2 1c1 1 2 2 3 1s0-2-1-3c0-2 0-2 2-3l3 1 2 2c2 3 3 6 3 10l-1 10c0 4 2 7 3 10 2 1 3 3 1 5 2 0 3 0 3-2l1-8v-10l-1-4-1-9 1-3 2-2c2-1 4 0 5 2l1 1m-49-85 1-2 2 2 4 4 1 2 3-2c0-1 1-2 3-1l4-1c2 0 3 1 3 3-1 3-1 7-3 10-2 2-2 5-3 7-1 3-1 3-6 6-2-1-4-3-3-6v-7c0-3-2-4-3-6l-2-3c-2-1-2-4-1-6m-28-79h3c3 1 5 3 5 6v4l1-1 2-8c1-3 6-6 8-6h4c2 1 3 2 3 4v5c0 1 1 3-1 3h-3l-3-4-2-2-2 2v3l-1 9c0 4-3 7-8 6-3 0-4-2-4-4v-6c0-3 0-5-2-8v-3m27 131-3-4-3-2h-5c-1 0-3 0-3-2a2 2 0 0 0-3 0l-9 3-5 4c-2 4-4 4-8 3-3-1-5-3-5-6s0-5 2-6l1-2c0-3 0-6-2-8v-4c0-2 2-2 3-1l2 6v6c0 2 1 3 3 3v-9a29 29 0 0 1 3-6c0-3 2-6 3-8l1-2c1-4 0-5-3-5l-3-1-1-1 1-1 4-1 3-2-1-1a2 2 0 0 1 0-3l4-6 5-5-1-5-3-3-5-1c-3-2-3-7-2-9 2-4 4-7 4-12l-1-5-1-4c0-2 2-3 3-1l3 3 1 4v5c-1 2-1 3 1 4l1 2c2 0 2-1 2-2s0-3 2-3c1 0 2 1 2 3l-2 10c-1 3-1 6 1 8l1-2 1-7 2-4c1-1 2 0 3 1l-1 4-1 7v4c-1 1 0 3 1 3l1 2-1 3c-1 1-2 0-3-1h-1v5c-1 3 1 7 2 10l2 1 6 5 1 3v4c1 2 1 2 4 2 1 0 2 1 2 3v5c0 1 0 3 2 4v2c1 2-1 3-3 2l-3-1v3l2 1c3 2 2 5 2 7-1 2-3 3-5 1m25 4-2 1-2 3-1 4c0 4-3 7-6 7s-5-2-6-4v-5c-1-2-1-2-3-2l-1-1a2 2 0 0 1-1-2c0-3 1-3 4-3l5 2c2 2 3 3 5 0l7-6 3-2 1-1 1 1c2 3 0 7-4 8m18 21a4 4 0 0 1-6-3v-10l-1-4v-4c2-1 4-1 5 1s3 4 2 7v6l1 4c1 1 0 3-1 3" class="st2"/><path id="Path_260" d="m151 177 3 2c1 0 2 0 2-2v-11l-2-3a1 1 0 0 0-2 1l-3 9c1 1 0 2-2 2s-2 1-2 3v8c0 3 0 5-2 8s-4 4-9 3c-2 0-3-1-3-2v-7l-1-2h-5l-2-1-1-6 2-2c2 1 3 0 5-1l2-1c3 0 6 4 5 7l-1 3 4 3v-11c0-3 2-5 5-5h1l1-2 1-5 1-6c0-3-2-5-4-5-2-1-4 0-6 1l-6 1c-2 0-3-1-3-2l3-1 3-1 3-3v-4c-1-2 0-3 2-3l3 1c1 1 2 1 2-1 1-2 2-2 4-2h5c2 0 3-1 4-3l2-5v-5l-1 1-1 3-5 2v-4l2-5 7-10 2-7c0-1 0-2-2-1l-4-2-1 2-2 6-1 3v1l-3 9c0 2-1 3-3 3-1-1-2-1-2-3l1-2c1-3 1-6 3-8v-3c2-2 2-4 2-7v-5c0-2 2-2 3-1s1 2 3 2l-1-4-6-8-3-4c-1-3 0-4 3-4l2 1 4-3 1-1 2-2c1-2 0-5-2-7-1 0-2-1-2-3l-1-1c-1-1-2-3-1-5l-1-2-1-1-1 1v4l-1 5v5c0 2-1 3-3 3l-2-2V56l-2-2-4-7c-1-1-2-3-1-5-1-2-2-3-4-3h-5c-2 0-3 2-2 4 2 2 2 4 2 6s-1 3-3 2c-2 0-3 1-3 2l-1 2-1 2h-1l-1-2v-6c0-2 0-2 2-2s2-1 2-2v-2c-2-3-5-4-8-6h-2c-2 1-3 2-2 4l1 1-1 5h-4l-1-2-1-3-2 3v2l-3 2c-2 0-2 0-3-2l-2-4c-3-5-8-7-13-5 1 2 0 4-1 4-3 2-5 4-9 3l1 3-2 4-3-2v-1c-3-3-6-3-10-3a2 2 0 0 0-1 2l-1 3-4 3h-2l-3-2a2 2 0 0 1-2-2l1-3 2-3v-4c-3-2-6-3-9-2l-6 3c-2 1-2 2-1 4s1 2-1 4c-1 1-3 3-3 5v2l-1 2-2 5v3a3 3 0 0 0 4-1l2-3c1-1 2-2 3-1v9l1 1c0 1 1 2-1 3h-3l-2-2c-2 2-2 3-1 5l2 4c1 1 2 3 1 4 0 3 0 3 2 3l2 3c0 1 0 2-2 3h-2l-2 2c-2 3-2 6-2 9v5l5 8 7 11 1 2 1 8a2 2 0 0 1-1 2c-2 1-3 0-3-2l-3-8-2-3a1 1 0 0 0-2 0l-2 4v3l1 5 2 4v6l1 3c-1 2 0 4 1 5l1 2v14l-1 5-1 4h1c2-1 2 0 3 1a98 98 0 0 1 0 8l-1 2-2-1-1-2h-1l-1 1v2l3 5 6 5v3l-2 1h-2l-1 3a2584 2584 0 0 0-1 23c-1 3-2 7-1 10v8h2l1-2 1-8v-8l2-8 2-2c1-1 3 0 3 2v3l-2 2 1 4 2-3v-4l-1-12c-1-2-1-3 1-4l2-1 1 2 1 3c3 5 1 9 2 14l-1 1-1 4-2 2v4l1 2c0 2-1 3-3 2l-2-1c-1 4 3 8 7 7l6-3 2-2v-3l-1-1v-4l3-1 4 2h2l5-2c2 0 3-1 2-3l1-3a1 1 0 0 1 2-1c1 1 3 2 3 4l1 1 4-3h7c2 2 3 5 2 7l-1 4-1 3v3l1 4v8c3-1 6-2 6-6v-18c-1-2 1-5 2-7l3-3 3 1c2 1 1 2 0 3l-1 3c-2 1-2 3-2 4v11l1 3c2-1 2-2 2-3a3 3 0 0 1 4-2l2 1h2l1-2v-1c0-3 1-4 3-4h6l1-1c4-1 6-4 7-8l1-2 3-2 2 3c0 2 0 2 2 2 3 0 5 0 6 2h2l4-4-4-2c-4-3-4-7-2-10v-6l-1-2 1-3c2-1 3 0 4 1l1 1 1 3v4l-1 7 1 2 2-1a2 2 0 0 0 1-2v-3l1-2 1-5 1-1-1-10-2 1h-2l-1-2 1-3v-1l1-6c1-3 0-6-2-7l-2-2c-2-1-2-2-1-3 1-2 2-2 3-2m-31-54c-1 1-2 2-1 4v7c0 3-2 5-4 6-2 2-4 1-6 0h-1v2l-2 6-3 2c-3 1-5 0-5-4v-10c0-1 1-2 4-1l2-3 2-3a4 4 0 0 1 6 2l1 3c2-1 1-2 1-3l-1-4c1-2 1-5 4-7 2-2 2-2 5 0l-2 3m-1-51c1-2 2-2 3-1l2 3 4 7 3 1c3-1 4 0 5 3v8l1 4 1 1v8l-2 1-1-1v-4l-2-2c-3 0-3-1-3-3l1-3-1-4h-1c-3 1-2 1-3-2l-3-5-3-5-1-6M73 96c2-2 3-3 3-6v-4c0-2 1-3 2-2 3 1 5 2 8 0l5-2h5l2 1v4h3l3-1c3-1 5-4 6-7 1-2 3-2 4-1l1 2-2 5c-2 3-2 6 1 9l5 5 2 3v5l-1 2-1 1-2-1v-3l-1-2c-2 1-2 2-1 3 2 3 2 6 1 9 0 3-2 6-5 8l-2 1c-3 2-5 1-5-2-2-1-3-1-3 1l-3 2-2 3c1 3 0 4-3 4h-2c-2-1-5 0-7 1l-1 1-3-1v-2l3-3v-3c-1 0-2-2-4-1v1c0 2-2 4-3 4l-2-1-1-2c-2-2-2-3-1-5 2-2 1-6 3-9 1-1 0-3-2-4a1 1 0 0 0-2 0l-1 3-3 1a2 2 0 0 1-1-3l2-5 2-4c0-2 2-4 3-5m-2 60c0 4-2 6-5 9a5 5 0 0 1-7-3l-1-4 1-6c0-2 1-3 3-1 1 1 3 2 2 4l1 2c2-1 3-3 2-4 0-4 2-5 5-7 2-1 4-2 6-5a2 2 0 0 1 2 0c1 0 2 1 1 2 0 2-1 4-3 5l-6 2-1 3v3m-9-88 5-4c0-1 1-2 2-1v4a57 57 0 0 1-6 6l-2 1-1-2v-1l2-3m-24 8c2-1 4-1 6 1l2 3 5-2c2-1 3 0 5 1l2-2c2-1 3 0 3 2v9l1 8-1 2-1 4-4 3h-1c-4 1-6-1-6-5v-1c1-3 0-3-2-3h-4l-2-2a396 396 0 0 1 0-8l1-3-3-4-1-1a1 1 0 0 1 0-2m13 111-3-1c-2-2-5-4-4-7l1-2 6 6v4m-1-40h-1v12l-2 2-1-2-1-3v-8l1-10v-4c-3-1-4-4-5-6-1-5-3-9-6-12-4-5-6-10-5-16 0-1 0-3 2-4l1 1 3 10 1 3 6 9c0 2 2 3 4 3 1-1 1 0 2 1l2 7v8l1 6 1 1c0 2-1 2-3 2m21 68-2 7c0 2 0 2-2 2h-2l-2 2-2 3c-2 2-4 3-7 1l-1-1c-1-3-1-6 1-9l1-6v-4l1-3 2 1h6l4 2c3 0 3 0 3 3v2m43-10-1-4c-2 0-2 2-2 3l-1 2c0 2-1 3-3 2l-2-2-3-2-1-1c-1 3-3 4-5 4h-3l-1 1c-2-1-4 0-6 1-3 1-7 0-10-2l-3-2c-3-1-5-4-4-7l1-6 1-3c2-5-1-9-5-10-3-1-5-3-7-6l1-3c2-2 4-1 4 1l4 3c2 1 5 1 6 3h2v-3c0-3 1-5 3-7l3-1h6c2-1 3 1 4 2 2 3 2 3 5 1l1-2c2-1 2-2 1-4l-1-4a2 2 0 0 1 3-1l2 3c3 3 5 5 9 5h1c2 0 3 1 2 2 0 2-1 3-2 3h-4l-2-1c-1 1 0 2 1 2l7 5c3 2 4 6 4 10l-2 2c-3 1-3 2-1 5l2-1h3v2l-1 2-1 5v1l-1 3c-2 1-3 0-4-1m17 5-2 2v4c1 2 2 5 1 8 0 2-2 4-5 6h-1c-2-1-4-3-4-5v-8l-1-5-1-2c0-2 1-2 3-2q3 2 6-1c1-2 3-2 4-1v4" class="st2"/><path id="Path_261" d="M626 33h2v-2l-4-2-1 1v2l3 1" class="st2"/><path id="Path_262" d="M76 196a5 5 0 0 0 1-7c-2 2-2 5-1 7" class="st2"/><path id="Path_263" d="M595 30h-3v2c1 1 2 1 3-2" class="st2"/><path id="Path_264" d="m584 191-1 1c0 2 1 3 2 3v-3l-1-1" class="st2"/><path id="Path_265" d="m605 194 2 2c0-2-1-2-2-2" class="st2"/><path id="Path_266" d="m632 143-1 2 1-2" class="st2"/><path id="Path_267" d="m621 191 1 1v-2l-1 1" class="st2"/><path id="Path_268" d="M618 160c0-2-1-2-2-3l-3 3 2 1 3-1" class="st2"/><path id="Path_269" d="m592 114 3 1v-1c-1-2-1-2-3 0" class="st2"/><path id="Path_270" d="m790 168 2-1c0-1-3-4-4-3l-1 1c-1 2 1 3 3 3" class="st2"/><path id="Path_271" d="M651 254v1l1-1h-1" class="st2"/><path id="Path_272" d="m625 156 5-7v-2l-1 1-5 8v1l1-1" class="st2"/><path id="Path_273" d="M882 100c-1-1-2-2-1-5l1-1-2-1c-2 0-3 0-3-2l-2-2c-2-1-2-1-2-3V74l2-2 1-1c-1-3-3-4-5-6l-5-3-1-5-1-4c-2-2-4-4-3-7l-6-2h-3l-4 2 2 2c1 2 0 3-1 3l-5-1-6-5-6-3c-2 0-3 0-3 2 0 1-1 2-3 2l-4 2h-3l-2-1h-1v1h-5l-7-5c-2-1-3-1-5 1l-1 4c0 1 0 2-2 2h-5c-2-1-4 0-6 1 0 4-1 4-5 3h-1c-1 0-2-1-1-3l1-3h-2c-3-1-6 1-9 3a2 2 0 0 0-2 3c1 1 0 3-1 4l-3 3 4 5 2 6 1 1 1-3v-1l2-2 2 3v5l2 3v-8l1-5a4 4 0 0 1 6-1l3 2 2-2c0-1 1-2 3-2l3-2 3-3h2l1 2c1 1 0 2-1 3-2 2-3 4-6 4l-2 1c1 3-1 5-2 7-1 3-4 5-6 4l-2-1-1 4c0 3-1 4-3 6h-1l-1 5-1 3 3 4v10c-2 2-2 4-1 5v15l3 7v8a89 89 0 0 1-1 13l-1 4 1 1 3-1c0-2 1-3 3-4-3-2-2-5-2-7v-9l1-2c1-1 2 0 3 1l1 2c2 2 2 4 2 7 0 2 1 5-2 7l-1 1a3383 3383 0 0 1 22 9h3l9-4 1-1v-2l1-3 2 1c2 2 2 2 3 0a5 5 0 0 1 9-1l1 4v13l1 3 4 4v-1c0-3 0-5-2-7a4 4 0 0 1 2-6c2-1 5-1 6 1l2 3 1-2 1-1h2v5c0 3 0 3-3 4q-3 0-3 3l-1 5-6 3c-4 2-4 2-5 6l1 4c0 2 1 3 2 3l3-4a2 2 0 0 1 2-2l2 1v-4l-1-2 2-2a2 2 0 0 1 2 2v11c0 3-1 5-4 7l-2-2-3 6-1 5h-1l-1-1c-1-2-2-2-4 0l-1 2-2-2 3-7 2-1 1 1c1-3 1-3-1-4l-2-1c-2-2-4-2-7-1l-1 2h1c1 1 2 3 1 4 0 2-2 1-3 1h-1c-3 0-6 0-9 2h-3v-3l1-2c-4-2-7-2-11 0-3 2-5 2-8-1-2-1-2-3-2-5v-14c0-2-1-3-3-3-1-1-1 1-2 2-1 2-2 2-3 1l-6-5c-2-1-3-1-4 2l-3 3h-1c-1 5-4 7-8 10v1l1 1 3 4 2-2 4-2c1 1 3 0 4-1l6-4 2 1c1 2 1 4-1 5s-3 2-3 4c-1 3-3 5-6 6s-4 3-5 6l-5 4c-3 0-5-3-5-6l1-6v-9l-4 3-1 4c2 1 2 3 2 5v5l1 2 3 6 2 6c2 3 4 5 4 8l1 2 5 5h1l2-1-1-2c-1-2-1-3 2-4l1-2 3-9h3l1 2c2 0 2-2 2-3l1-3 4-8c1-1 3-2 4-1v2l-2 6-1 2c0 3-2 6-4 8-1 2-3 3-3 5l-2 4h-4c2 3 2 5 1 8v9l1 2 2 5v4l2-1v-2c3-3 2-6 1-9v-11l3-6 1-1c3-1 6 0 7 3l1 3h1l2-4c0-2 2-4 3-5l4-4c1-1 3-1 3 1l-1 5-4 3-1 2v6l1-1c1-2 2-2 3-2 1 1 2 1 2 3v6c-1 4 1 7 4 9v-8l-1-4 4-8c2-2 5-3 7-1l3 4 2 2 2 4 1 2 2-1 3-4 3-4c1-1 2-1 3 1v1l2 1 1-2c1-2 1-2 3-1h1c1-2 2-2 4-1h5c2 2 4 1 5-1l2-3a2 2 0 0 0 0-3l-2-4c0-2-1-2-3-3-2 0-3-2-4-3l1-9 2-2 1 1a2 2 0 0 0 3 0c2-1 4-1 5 1s3 4 2 7c-1 2 0 4 2 6l1-3 1-3c0-5 0-9-2-13v-10c1-2 1-3 3-2l3-1c0-3 2-6 0-8l-1-2-2-4c-2-2-3-4-2-6-3-2-3-3 1-7l-1-2c0-2 0-3 2-3l2-2v-3c0-1-1-2-3-2-2 1-3 0-3-2v-16c-3 1-4 0-4-2l-2-4-2-1-1 1 1 1 1 1v4h-4l-4-7-3-6-1-1-6 3c-3 1-4 1-6-1l-5-4h-5l-3 3 3 2c1 1 2 3 1 4h-4c-3-2-7-2-9 0l-3 2c-1 1-2 0-2-1l1-4c1-2 1-3-1-4s-3-1-4 1l-2 2-4-1h-2l-4-1h-5c-4 3-9 1-10-3q0-2-2-2h-1c-2-1-3-1-3-3v-2l-1-7v-2a2 2 0 0 1 2-2l2 2 1 2h6c1 0 2 1 2 3v3c0 2 1 3 3 3v-17c0-4 3-6 6-7l2-2-1-3 1-6a1 1 0 0 1 3-1c1 2 2 1 3 1l4 2c3 1 4-1 6-2 2 0 2-1 2-2l-1-2 2-2 4 2c2 2 3 2 5 1h4c1 0 2 1 1 2-1 2-2 3-5 4h-2v1l2 2c2 1 2-1 3-2h2c1 2 3 3 3 6l-1 6 2 3c3 2 5 4 5 7 3-1 3-2 2-4l-1-4c0-1 1-2 2-1h2l4 2h3c2 0 3 1 3 3v4c0 1 1 2 2 1l5-4 3-3 2-1 1 2 1 3h1c3-1 4 0 4 3l1 2h2v-1c-1-3 1-5 1-7 0-3 0-3 3-3l1-1-3-3m-57 135-4 1c-2-1-2-1-2-3v-8c0-2 1-2 3-1h1c3 1 4 3 4 6l-2 5m22 3c-3 1-5-1-6-4v-3l2-6 2-1 1 1v3l1 3 2-2c3 4 2 8-2 9m13-38c-2-1-4-2-3-6l2-8 1-3 1-1a1 1 0 0 1 2 1v8c3 0 4 0 4 4s-3 6-7 5m-5-58 2 2 1 1a2 2 0 0 0 3 0h1c2-1 3-1 4 1l2 5v15c-1 1 0 3 1 4l1 4-1 2-2-1c-2-1-3-2-3-5v-13c-3 2-4 0-5-2l-3-6-2-2v-2l1-3m-21 0c0-2 1-2 3-2l2-1 5-2 2-2h2c2 2 1 7-2 8-1 0-2 1-2 3l-2 6c-1 2-3 1-4 1-2 0-3-1-3-2l-1-2v-7m-36 12v-1c3-2 4-4 2-7l-1-3c0-2 1-2 3-2l3 3v5c0 1 0 3-2 4-2 0-2 2-2 3a2 2 0 0 1-1 3l-3-1 1-4m17-72c-1 2-3 1-5 1s-3-2-3-4l1-7 2-3h1c3-2 3-2 5 1 1 2 2 4 1 7 1 2 0 4-2 5m34-24-1 1c-2 1-2 3-1 5v5l-1 2c0 2-2 3-4 4-1 0-4-1-4-3l-1-4-2 1c-4 0-6-2-5-5v-6c0-1-1-3 1-3l3 1 2 2c2-2 4-2 6-1l3-1 4-2v4m15 33h-5v1c2 3 0 5-1 7-2 2-6 1-7-1l1-7 1-1 2-3v-1c0-3 2-5 5-4h1l1-3 2-4 3 1v7c1 3-1 7-3 8m7 9-1 2h-2c-2 0-3-2-3-5l1-3 2-2c1-1 3-1 3 1v7" class="st2"/><path id="Path_274" d="M833 165v-3l-1-1h-1l-3 4c2 2 4 2 5 0" class="st2"/><path id="Path_275" d="M671 264h-5a1 1 0 0 0 0 2l2 1 3-1 1-1-1-1" class="st2"/><path id="Path_276" d="M766 258v-1c-2-2-2-4-1-7v-1c-2-2-3-4-6-5-4 0-4-1-3-5 0-1 0-2-2-2l-2-3-1-1c-2-2-2-4 1-5l1-2-3-4v3l-2 3-2-1c-1-4-2-9 1-13v-3l-3-1v-4h3l-3-4-4-2-1-4 3-2h3c2-1 3-2 3-5v-2c0-2 1-3 4-3 2 0 3 0 2-3v-5h2l2 1 1 2 3-2a2 2 0 0 0 1-2l-1-5-1-3-3-5-1-8c0-2-1-4-4-5l-1-1c-1-4-1-8 1-11l1-5-1-1-2 1c-2-3-4-5-4-8v-2l-1-4 2-9c0-4 1-4 4-4l1-3v-3l1-1 2 1 4 9-1 3h-2l-3-1c-3 3-4 8-2 12h3c1 1 3 3 3 5l-1 8c0 2 0 3 2 4v6c0 2 0 4 2 5v2l1 3 1 5 1 3 2-1v-3c0-3 0-5 2-6 3-1 3-1 1-4l-1-2c-2 1-2 2-2 4-1 1-2 2-3 1a2 2 0 0 1-1-2l1-4 5-13c-3 0-3-2-3-4l-1-2c-2-3-2-6-2-9v-3l-1-5c1-2 2-2 3-1l3 3c1-2 2-4 1-5-3-2-3-5-2-7l-1-4c0-2-1-2-2-2v2l-1 3-1 1-1-1-1-4v-7c-4 0-4 0-4-4l1-6c0-1 1-3 3-3h1c0-5-4-8-7-11l-1 1c0 2 0 2-2 2-3 0-5-2-5-5l-5-7c-1-1-4-2-5-1-1 2-3 2-5 3l-5 2c1 3 1 3-1 3-3 1-5 1-7-1l-6-4c-2-2-4-4-7-3h-1l1 3-8 2h-2l-2-1c-2 2-4 2-6 0l-6-4-7-1-1 3 1 3-2 2-4-1-5-1v1c1 4 1 8-1 11v2l1 1 1 2-1 2v1c0 2 0 5-2 7l1 2 3 5-1 2-3 1 2 3 1 2-2 1c-3 0-5-1-6-3l-1-2-4 1a61 61 0 0 0-5 3l-2 5-2 5c-1 2-2 4 0 6l1 4c0 1 1 3 3 3v-10c1-4 4-5 8-4 2 0 3 1 5-1 2 1 2 3 2 4v6c-1 4-4 6-8 4h-1c0 3-2 5-3 7l-2 5-1 3-1 5-1 1v8l-2 5-1 1v4l6 8c1 2 2 3 1 5l-1 2h-2l-3-2-1 4a1 1 0 0 0 1 2l1 2 4 2 6 3 2 2-1-4-1-5-2-10-3-10-1-9 1-2c0-2 0-3 3-3 2 0 2-2 3-4l3-5h2l1 5c-2 2-2 5-2 8-1 3-1 3-4 3-1 1-2 1-2 3l1 7v2c2 1 2 3 2 5 1 1 1 3 2 2v-2l-1-4 1-2 3 1 1 3v18l-2 6 3 6v3l-2 5 1 4c2 4 4 7 3 11l1 9v8l2 1c0 2-1 5-3 6l-3 2-1 1c-2 2-3 5-2 8l-2 4-2 2c-1 0-2 1-1 2l2 1c2 0 3-1 4-3v-3l-1-2 2-2h3l2 2c1 2 2 2 4 1l4-1h2v-12c-1-2 0-3 2-3 1-1 2 0 2 2l1 2c2 3 2 6 0 9l-1 7h1c2-1 3 0 3 1l-1 3h-1l-2-2c-1 3 0 4 2 4s2-2 3-3c2-3 2-6 1-8l-1-5-1-4c-1-4-1-7 1-10v-5l-2-3-1-2c1-2 0-4-1-5s-1-3 1-3l2-1v-2l1-3 1-2-2 2h-5l-1 4-1 4-4 4c-1 0-4-1-4-3v-15c1-2 1-2 3-1s2 1 3-1c2-2 3-3 5-2l3 1 1-1v-7c-2-2-2-5-2-7l1-12 2-2 1 2v4l1 2 2-1 2-1 1 3 1 3v9c-1 3 0 5 3 6 1 1 3 3 3 5l2 2h4c2 0 3 0 3 2l-2 3-2 1h-1v4c0 2 0 3 2 3h3c2 0 3 0 4 2 0 2-3 2-4 4v1c3 5 4 5 9 2 2 0 3 0 3 2s0 3-2 4c-2 0-3 1-3 3v8c0 1 0 3 2 3l1-3v-5c1-3 3-4 6-3h2l1-1 3-6 2-3h4v3l-1 2c-2 1-2 3-2 5v2c0 3-2 6-3 8l-2 2c-4 0-5 2-5 5v1a2 2 0 0 0 2 3c2 1 3 2 2 5l4-2c4-1 5-4 3-8v-6a2 2 0 0 1 2-1l3 5 1 2 1 5c-1 4 1 6 3 9h1l1-2v-14c1-4 3-5 7-5 1 1 2 0 3-1l4-2 1 4v6c0 4-3 6-7 6h-3l2 3h5l2-3c0-1 1-2 2-1l3 3c0 3 1 3 3 3l1 1v-6c-1-2-2-4-1-6m-49-100c-3 1-5 0-7-2l-1-1-1 1 2 2v2l2 7v4c-1 2-1 4 2 5l1 2 2 5-1 2c-2 0-3 1-3 3h-3l-3-3v-21h-1l-4-2c-2 0-5 1-6 3l-3 2-3-2 1-2 2-3c2-2 2-2 0-4l-3-3c-1-2-3-2-5-1-2 3-2 6-2 9 0 4-1 5-5 6l-2 2c1 2 0 4-2 5l-4 1c-1-1-2-2-1-3v-14l-1-3 1-1c1-1 2 0 3 1l1 2 2-1 3-1c1 0 2 0 2-2l-1-3 1-5-2-4 1-3 2-1v-2a2 2 0 0 0-2-1c-1 1-2 2-3 0v-3c2-2 2-4 1-6l-1-2v-4c0-2 2-2 3-1l2 2 2 1 1-2v-1a5 5 0 0 1-3-9c1-1 2-3 1-4l-2 1h-5c-1-1-2-3-4-2l-1-1c-1-1 0-4 1-6l5-2h2l-2-1v-4l-2-7-2-1-5-3-1-2c-2-2 0-4 2-4l2 2 3 2 4 2c3 1 4 3 3 6l1 1 1-1 2-2 2 2v2l1 2 1 2 1 10c0 3 0 3 4 2 0-4 3-5 6-7h5v-1l1-6v-6c0-2 0-4-2-5l-3-2v-2l2-1c2 0 6 4 6 6v10l1 2 1-1c3-2 3-2 1-5-1-3 0-7 3-8a4 4 0 0 1 7 2v3l3 3c1-2 0-3-1-4-1-3 0-4 2-6h4v4l-1 3-1 6v2l2 1 1 1 3 7 1-2a4 4 0 0 1 7 4c0 2 0 4-2 6v3c1 1 1 2-1 3l-3-1-1-1-1 1-5 1c-2 0-4-2-3-5v-5l-1-3c0-1 0-2-2-3-1 1-2 4-1 6l2 7 2 9v6l-1 4v15c0 2 0 3-2 4-2 0-2 1-1 3l1 5-2 1-3 1m20 7-1 1-3 3c-2 1-3 3-3 5l1 6c1 2 1 5-1 7l-2 4a5 5 0 0 1-8-1v-9l1-6v-3l1-1 1 1v1l2 8 1 2 2-2-1-6v-2c-1-4 1-6 4-8l2-2h1v-3l2-5v-2l1-1 2 1v6c0 2 0 5-2 6" class="st2"/><path id="Path_277" d="M814 266h1v-1l-1 1" class="st2"/><path id="Path_278" d="M823 248h-1l1 3h1v-1l-1-2" class="st2"/><path id="Path_279" d="M535 134v1c0-4 0-6-2-7l1 5 1 1" class="st2"/><path id="Path_280" d="m647 238 1-5 2-4c2-2 2-2 0-4s-1-3 1-4l3-1c1-2 1-2-1-3l-1 1h-3l-1-3 2-5 3-4c1-3 0-6-3-7-1 0-2 0-3 2l-1 5c0 2-1 3-3 4-1 1-3 0-3-1l1-3v-4l-2-2-1-9-1-2h-2l-5 2c-2 2-2 3-1 5l3 6c1 1 0 2-1 2h-4l-2-2c-2 0-3-2-5-3 0-1-1-2-3-1-2 0-3 2-5 3l-1 4v4c-1 2-2 2-3 1l-2-3-7-12c-4 1-5 0-5-3l1-5c0-2 1-2 2-2l2 1-1-4v-7l1-7 1-5 2-5v-5l2-2c3 1 5-1 8 1h1c1-1 2-2 3-1l1 3h1c4-4 7-8 9-13 0-2 1-3 3-3l3 1v-7c0-4-2-7-3-11l-1-2-3-1v6c-1 2-2 2-4 1l-1-4-5-7h-4l2 1 3 4a2 2 0 0 1 0 2h-3l-5-4-2-1v3l1 4c1 2 0 4-1 4-2 1-3 0-4-2l-1-1c0-2-1-2-3-2h-2l-6-4c-1-1-3-2-3-5l-1 1c-4 1-3 1-3 4v11l-2 2c-2-2 0-4-1-6-3 0-4-2-5-3l-3-4c-2-2-2-2 0-4v-1l-3-1h-6l-4-1c-2 0-3-2-1-3 1-2 3-2 5-2l4-2c1-2 3-4 3-7v-3c0-3-2-4-4-6l-6-4h-1c2-3 5-2 7-3-3-2-2-5-2-7v-6l-1-4-1-3 1-2h2l3 4 1-1 1-1 1-2c1-2 3-3 4-2 2 1 2 3 1 4-3 3-2 7-2 10 1 3 0 6-2 9l-1 1v1l3-1 5-4 3-4c1-1 3-2 4-1v4l1 2a2 2 0 0 0 3-2v-2c1-2 2-2 3-1l3 3 4 4c3 3 7 3 11 2 1 0 2 0 1-1h-4v-2l1-2 5-4 2-1h4a2 2 0 0 1 3 4l-1 2c0 2 2 3 3 2 2-1 4-2 4-4l3-2c2-1 3 0 3 2l-1 4c-2 2-1 3 0 4l3 1c3 1 5 2 8-1 2-1 2-2 2-4v-7l1-2 3 1-2-4c-2-2-2-2-1-3l4-6c2-4 2-9 0-13-3-7-2-7-11-7-2 0-2 1-3 3l-1 1h-2l-3-2-2-2c-2 0-3 1-3 3l1 1 1 6-2 1c-1 1-1 0-1-1v-2c-1-2-2-3-4-2-2 0-3-1-2-3v-4c-2-3-5-5-9-5l-9-1c-4 1-6 4-5 8v2c1 2 1 4-1 5h-3v-3l-1-3-4-7-8-5-4-1h-6l-5 1-2 2 2 1c3 0 4 2 6 3v3l-3 1-7-1c-4-1-6 1-8 3l-3 5-4 2c-1-1-2-2-1-4l2-4 3-4-1-1a498 498 0 0 0-11 1l-3 1c-2 1-2 1-2 3v3l4 8 1 3v8l-1 4-5 9v7h1v-3l4-2c1 0 2 1 2 3v2l-3 10h-1v9l3-5 4-8 3-9 2-9a113 113 0 0 1 1-7c2 1 1 2 1 2l1 18-2 4-3 6-6 12-2 5v1h1l3-3v4l-1 4c-2 1-2 4-2 6v4l1 3v1c1 4 3 7 3 11l-1 3c0 1-2 2-3 1-2 0-2-1-2-2l-1-4h-2l-1 3-2 6-1 5h3c2 1 3 2 3 4v3c2 1 2 3 2 5v6c0 3-2 5-3 7h-3v-2a251 251 0 0 1-1 4c-2 3-2 5 0 7v14c0 5 1 10-1 15l-3 6v4l1 5v3l-1 4-2 3c3 1 8 2 11 1 4-3 8-6 10-10 0-2 2-2 3-2 2 0 2 1 2 3v4l1 1 1-1v-7l-1-5-2-8-1-1-1 1-1 3c0 3 0 6-2 10l-5 5c-2 1-4 0-5-2l-1-1c-1-1-2-3-1-5l2-4v-4c1-4 1-9-2-13l-1-3-1-3c1-2 1-3 3-2 3 1 4 3 5 5v3c2 1 2 4 2 6l1 2 2-2c0-2 2-2 3-2 2 0 3 0 4-2l2-1c4 1 6 6 4 10v3l1 5 1 5v6l-1 5-1 6-2 8v10l1 1v4a2 2 0 0 0 2 2c1 1 1 0 2-1 2-5 3-9 1-14v-9l1-13 1-2c-1-3 0-6 2-9l7-8a2 2 0 0 1 3-1c2 1 2 2 1 3 0 3-2 5-4 7l-2 4c2 0 4 1 5 3l3 3c2 2 5 4 8 2l7-5 3-4c1-2 3-2 4-1 2 0 2 1 2 3l-2 3-4 5h4l8-5c2-2 3-4 3-7l-1-3-3-4c-1-1-2-2-1-3s3-2 4-1c2 1 4 3 5 6l2 3 1-3c1-5 5-6 8-3 3 2 5 4 4 8v26l-1 13 1 4-1 3-1 2c4 0 7-2 8-5v-9l-1-6-1-3 1-9 1-3 3-4c2-3 4-7 3-12l-1-4a2 2 0 0 1 2-2l2 1 2 4a89 89 0 0 1 0 11l-5 8-1 2c4 0 9-2 11-5h-5m-39-106 3 1 1-1c2-1 3 0 3 2v9c-1 2-3 3-5 3-1 0-3-1-3-3v-3l-1-4-1-2a2 2 0 0 1 3-2m33-78 4-6 2-4 1-1 1 1 1 3c0 3-2 5-4 7l-2 2h-2c-1 0-2-1-1-2m-26-14c1 1 2 1 1 2l-1 2-3 3-1 1-1-1-1-2c0-3 4-6 6-5m-17 10c1-2 3-4 5-4s5 3 4 4c0 3-1 4-4 4s-5-2-5-4m-34-7a2 2 0 0 1 2-2h3c6 0 9 3 12 8a1 1 0 0 1-1 1h-4c-2-4-6-4-9-4s-4-1-3-3m10 168a2 2 0 0 1-1-3l4-7c3-3 3-5 0-8-2-2-4-3-7-3l-3 1c-3 3-5 6-6 10l-2 3c-2 1-4 1-4-2v-2h-2l-3 1c-5-1-6-2-6-7l2-6c1-2 1-2-1-3-3-2-3-4-2-6l1-2 2 1 7 6 4-6-2-1-2-3 1-7a3 3 0 0 1 3-2 2 2 0 0 1 2 1l1 2v2l3-2c2 0 2 0 3 2l-1 6-4 7-3 5 1 3 2-3 3-5 4-8 1-3v-7c0-3-1-6-3-8l-1-2-1-2-2 2c-2 2-6 3-9 2l-2-4 1-11c0-1 1-3 3-3l2-3v-6c1-2 2-2 4-2 1 0 2 1 2 3l-1 7 1 3 1 6v3l2 1 5 1c2 1 3 2 3 4 1 2 2 2 3 2 4 1 8-2 10-5 0-2 1-3 3-4h2l1 4c-1 3-1 3 2 4l2 2v6l-2 2v5c2 3 2 6 0 10l-4 6c-2 2-1 2-1 4 2 3 4 6 4 10-1 3-2 4-4 3l-2-1-1-2c-4 1-7 4-9 8a3 3 0 0 1-4 1m28 1-5 3-2 2v5l-2 7c-1 2-3 3-6 3-2 0-4-1-4-4v-9l-1-1c-3 0-3-1-3-3s2-4 4-4 4-1 5 1a2 2 0 0 0 3-1l8-4c2 0 4 0 4 2 1 1 1 3-1 3" class="st2"/><path id="Path_281" d="m774 248 1 4v-4h-1" class="st2"/><path id="Path_282" d="M720 87c-1-1-1-2-3-2v3l-1 6 2-2 4-2-2-3" class="st2"/><path id="Path_283" d="M799 174c4 2 8 2 12 0l6-3c3-1 7 0 8 3l3 3a7 7 0 0 1-2 10l-5 2-2 1c-1 2-3 2-5 1l-3-1h-6c-3 1-3 1-5-2l-2-6v-2l-3-7 4 1" class="st3"/><path id="Path_284" d="m825 113-5 3h-2l-6-2h-5a3 3 0 0 1-3-1l-2-1c-2-2-2-5-2-8 1-1 1-2 3-2l6-5c1-3 6-3 8-1 2 3 5 4 8 5l1 1v1c-1 2-1 5 1 7 0 2 0 2-2 3" class="st3"/><path id="Path_285" d="M690 130c2-4 2-8 1-12 0-4 1-6 3-9h2l6-2c2-1 4-1 6 1l2 1c2 0 3 1 3 2v2l3 6 2 1-4 7-1 4v4l-2 2c-3 0-5 2-7 3l-6 2h-4c-2-1-1-3-2-4l-3-7 1-1" class="st3"/><path id="Path_286" d="M399 140c1-3 2-7 1-10-1-4 0-7 2-10l2-1 5-2h7l2 1 3 3c1 3 2 6 5 8l-3 7-1 4v4c0 1 0 3-2 3l-6 3-6 2h-3a2 2 0 0 1-2-1l-4-8v-3" class="st3"/><path id="Path_287" d="M305 81c2-1 4-1 6 1l2 1c2 0 3 1 3 3l4 7v1l-3 6-1 5v3l-2 2-6 3-6 1h-4l-2-3a152 152 0 0 1-2-8c1-4 2-7 1-11l3-9 2-1 5-1" class="st3"/><path id="Path_288" d="m192 164 5-8c2-3 3-3 5-1l6 6v7h-2c-3-1-5 0-8 2l-6 4-2-1c0-3-1-6 2-9" class="st3"/><path id="Path_289" d="M75 190c-1-2-1-5 1-7a5 5 0 0 1-1 7m25 0-6-1h-6c-4 2-5 2-5-2v-8c0-2 1-3 2-2h16c3 0 4 2 4 4v5l1 3-1 2h-3l-2-1" class="st3"/><path id="Path_290" d="M80 97c0-2 1-2 3-3l5-1 3-1 6 1 4 1c2-1 3 0 4 2l2 5v4c0 3 0 3-3 3l-3 1-4 1-6 3c-2 2-2 2-5 0l-4-1c-1 0-2 0-1-2 1-3 1-7-1-10v-3" class="st3"/><path id="Path_291" d="M619 175c-2 2-6 2-8 3-4 2-5 2-7-2v-2l-1-9c1-2 1-2 3-2l3 1h5l3-1c5-1 10-3 13-7a92 92 0 0 0 2 5c1 3 2 6 0 9l-1 5-2 1h-6l-4-1m-32-75-5 1h-5c-1-1-2-2 0-4l1-2 1-4v-5a4 4 0 0 1 5-3h8l2 2c3 3 6 4 10 4h5l6-1 7-1 5-1h3l3 7 2 3-1 4-2 4-1 3v2l-2-1c-1-2-3-3-5-3l-6-2c-4-4-9-3-13-2h-2c-1 2-3 2-4 1-2-2-4-2-6-2h-6" class="st3"/><path id="Path_292" d="M800 173c4 2 8 2 12 0l7-3c3-1 6 0 8 3l2 3a7 7 0 0 1-2 10l-5 2-2 1c-1 2-3 2-5 1l-3-1h-6c-3 1-3 1-5-2-1-2-2-4-1-6l-1-2-2-7 3 1" class="st1"/><path id="Path_293" d="m826 112-4 3h-3l-5-2h-5a3 3 0 0 1-4-1l-1-1c-3-2-3-5-2-8l2-2 6-5c2-3 6-3 8-1 2 3 6 4 9 5l1 1v1c-2 2-1 5 0 7s0 2-2 3" class="st1"/><path id="Path_294" d="M691 129c2-4 2-8 2-12-1-4 1-6 2-9l2-1 6-1c2-1 5-1 6 1l3 1 2 2 1 2 2 6 2 1-4 7v4l-1 3c0 2 0 3-2 3-3 0-4 2-6 3l-7 2h-4c-2-1-1-3-2-4l-2-7v-1" class="st1"/><path id="Path_295" d="M400 139c2-3 2-7 1-11-1-3 0-6 2-9l2-1 5-2h7l2 1c2 0 3 1 3 3l5 8-3 7v8l-2 3c-3 0-5 1-7 3l-6 2h-3a2 2 0 0 1-2-1l-4-8v-3" class="st1"/><path id="Path_296" d="M306 80c2-1 5-1 7 1h1c2 1 4 2 4 4 0 3 1 5 3 7l1 1-3 6-1 5v3l-2 2c-3 0-5 1-7 3l-6 1h-4l-2-3a152 152 0 0 1-2-8c2-4 2-7 2-11-1-3 0-6 2-9l2-1 5-1" class="st1"/><path id="Path_297" d="M193 163c3-2 5-5 6-8s3-3 5-1l5 6c2 2 1 4 0 7h-1c-4-2-6 0-9 2l-6 4-2-1c0-3-1-7 2-9" class="st1"/><path id="Path_298" d="M77 189c-2-3-2-5 0-8a5 5 0 0 1 0 8m24 0-6-1h-6c-4 2-4 2-4-2v-9c0-1 0-2 2-1h16c3 0 4 2 3 4v5l1 3-1 2h-2l-3-1" class="st1"/><path id="Path_299" d="M82 96c0-2 0-2 2-3l5-1c1-1 2-2 3-1l7 1h3c2 0 3 1 4 3l2 5v4c0 3 0 3-3 3l-2 1-4 1c-3 0-4 2-6 3-3 2-3 2-5 0l-4-1c-2 0-2-1-2-2V96" class="st1"/><path id="Path_300" d="m621 174-9 3c-3 2-5 1-7-2v-11c0-2 1-2 2-2l3 1h5l4-1c5-1 9-3 13-7a92 92 0 0 0 1 5c2 2 2 6 0 9l-1 5h-2c-1 2-3 2-5 1l-4-1m-33-75c-2-1-3 0-5 1-1 1-3 1-4-1-2-1-2-1-1-3l1-2 1-5 1-4a4 4 0 0 1 5-3h8l2 2c2 2 6 4 9 4h5l7-1c2-1 4-2 6-1l5-1h4c0 2 1 5 3 7l1 3-1 4-1 4-2 3v2l-1-2-6-2-6-2c-3-4-8-3-13-3l-1 1c-1 2-4 2-5 0l-5-1h-7" class="st1"/></g></g></g></svg>