<svg xmlns="http://www.w3.org/2000/svg" id="Layer_1" version="1.1" viewBox="0 0 345 118"><defs><style>.st0{fill:#fcee22}</style></defs><g id="Group_1"><path id="Path_1" d="m97 5 2 1 2 1a1 1 0 0 0 1 0l2-1h23l3 1 2 1 1 1 3 2c2 1 3 2 3 4l2 2v1l1 1a8080 8080 0 0 0 18-1 6 6 0 0 0 3 0 16 16 0 0 1 3 0l4 1 1 1 1 1 4 1v1-1l1-2 1-3 1-2 3-3 3-1h2l1 1h4l4 1h1l2-2a7 7 0 0 1 3-1l3-1h2l2-1 1-1h4a6 6 0 0 1 2-1h5l1 1h5l1 1 1-1h3l1 1h2l1-1 3 1 2 2 1 1h4l4 2 1 3h4a9999 9999 0 0 0 22-1h1c3 0 4 1 6 3l1 1 4-4h1a78 78 0 0 1 4-2h4l3-2a4 4 0 0 1 4 0l2 1 2-1h8l2 1 1 1 1-1h4c1 0 0 0 0 0l4 2 3 2v1l2 3 1 4 1 1 1 3 1 1v7l1 3v3l-1 2c-1 2-4 2-6 2h-2l3 3 1 3 1 1v2l1 2 1 4-1 1v4l1 3v10l-1 3v3c0 2 0 3-2 4l-1 1-2 4-4 3a6 6 0 0 1-4-1l-1 1-2 1h-1l-3 1h-2l-1 1-1 2-3 2h-2c-2 0-3-1-3-2l-1-2h-1l-1 1-2 3a5 5 0 0 1-4 1h-1v1a5 5 0 0 1-6 1l-2-2-2 1-3 2h-1l-3-2-1-1h-3v-1l-2-1h-2c-1-1-3-2-2-4a213 213 0 0 1-1-4l-2-5-1-3-1 1-1 4 1 2v1l1 1v5l-2 3-1 1h-4a8 8 0 0 0-2 0h-1l-2-1h-2l-2 1c-1 2-2 3-4 3h-2l-3-1h-1l-3-1-1-2-1-3v-3l1-2v-2h-1l-5-1a13 13 0 0 0-2 0h-3a34 34 0 0 0-3 0l-2 1v2l-1 2v2c0 2-1 4-3 4l-2 1-4-2c-2-2-2-4-2-6v-1l-1-2a8 8 0 0 0-3 1h-2v7l-2 1-1 1h-4a4 4 0 0 0-1-1l-1 1-1 2-3 1h-1l-3 2-2-1h-1l-1-2-1 1a7 7 0 0 1-5 3l-3-1-1-1-1-1h-1l-3-1-2-1c-1 0-3-1-3-3a142 142 0 0 1 0-4l-3-4-1-4c-1 2-2 3-1 5l1 3v1l1 3v2l-2 3-1 1a12 12 0 0 1-4 0h-7l-2 1c-1 2-2 3-4 3h-2l-4-2v-5l1-2v-1l1-5a10 10 0 0 0 0-4l-2 1h-1l-3-1-1-1-1-1v1h-1l-3-2-1-1c-2 0-3-1-3-3v-4l-2-4-1-3-2 4 1 2v2l1 3v5l1 2v2l-2 2-1 1h-2a5 5 0 0 1-2 0h-2l-1-1v1a4 4 0 0 1-2 3 33 33 0 0 1-4 1l-4-2a15 15 0 0 1-2-3l-1-1-3-2-1-4-1-1v-2h-4l-1-1-1 1a10 10 0 0 1-7 1l-2-2h-2v1l-1 3c1 1 0 2-1 3l-2 1-3 2-3 2a4 4 0 0 1-4 0l-1-1h-1l-1-1a2 2 0 0 0-1 0v1l-2 1-2 1-3 1h-2v-1h-1v1l-4 2a8 8 0 0 1-3 1l-4-2-2-2-1-1-4-1h-2l-3 1h-6l-3-1v-1l-1-1v-3l2-3 1-2-2-1-1-2v-2h1l1-3v-1l1-3-1-2V63l-1-4 1-2v-1l-1-2-1-2v-2l1-3v-1a47 47 0 0 0 0-5l-1-5a19 19 0 0 1 2-3v-2c-1-1-2-3-1-4v-3l-1-1-1-3v-2l1-2 1-2 3-4 4-1h2l1 1h1l1-1h4l3 1h1l3-1h2l3 1h1a2 2 0 0 1 2 0h2l2-1h1l2 1h6l2 1 3 3 1 3 1 1 3 2v-2l1-2 3-3h1l2-2h4l1-1 4-1h1a4 4 0 0 1 3 1l2 1h3l3 2v-2l5-5 2-1m0-4-4 1-5 5h-2a22 22 0 0 1-1 0 8 8 0 0 0-6-2h-1l-5 1v1h-5l-3 2h-1l-3 3a12 12 0 0 0-7-5V6l-4-1-3 1-3-1h-1l-3 1a6 6 0 0 0-3 0 8 8 0 0 0-4-1H15L9 6l-5 6-1 1v1l-1 3a18 18 0 0 0 0 4l2 5v7l-1 2c-1 2 0 5 1 7v3l-1 5a74 74 0 0 1 0 3l1 4v1c-1 2 0 5 1 7v12l-1 2-1 3v2l1 4-1 3v5a7 7 0 0 0 3 4 9 9 0 0 0 8 2h3l4-1 3 1h1v1l1 1a9 9 0 0 0 8 3l4-1 3-2h5l5-2v-1l1 1a9 9 0 0 0 8 0l3-2h1l2-2 3-2 3-4a14 14 0 0 0 8-1h1l3 6 3 2a8 8 0 0 0 1 1l2 3 3 2 4 1h1l3-1h1l2-1 1-1a8 8 0 0 0 3 0l3-1 1-1c2 0 3-2 4-3l1-4a8 8 0 0 0 3 1l2 1 4 2v3l-1 3c-1 3-1 6 1 9a8 8 0 0 0 8 3h2c3 0 5-2 6-4l3 1h2l1-1 2 1 3-1 4-2 1-1h2a8 8 0 0 0 4 2l2 1 6 2h3l3-2 4 1 5-1 4-2 2-2h4l2-1 4-3v1c1 3 5 4 8 4l4-1c4-2 6-5 6-9a7 7 0 0 1 0-2l1 1h6v2a10 10 0 0 0 2 7l1 2a9 9 0 0 0 7 2l3 1h2c3 0 5-2 7-4l3 1h2a22 22 0 0 0 6 0l3-2 2-1 2 1 3 1 3 1 6 3h2l3-2h1l4 1 6-1a10 10 0 0 0 6-3l5 1h3a9 9 0 0 0 6-5c2 0 4 0 6-2h1a10 10 0 0 0 5 0l6-3 4-6c1-2 3-4 2-7v-3l1-2v-5l1-3v-2l-2-6 1-2c0-2 0-5-2-8v-3l-1-2 3-2 2-4a8 8 0 0 0 0-4l-1-4v-7l-2-3-1-3v-1l-1-2-2-3-1-2-2-3h-1a10 10 0 0 0-8-3 12 12 0 0 1-1 0h-2l-4-1h-5a6 6 0 0 0-5 0l-4-1-3 1-4 2h-5a82 82 0 0 0-4 2l-2 2-6-2h-4a2 2 0 0 1-1 0h-1l-2 1h-9l-7-1h-1a12 12 0 0 0-3-3l-4-2h-3l-3-2-5-1h-13l-3-1h-7l-2 1h-1l-4 2h-5l-4 2-2 1a12 12 0 0 0-4 0l-3-1h-3l-5 2-4 3-2 3v1l-1 1-1-2a11 11 0 0 0-7-1h-8l-1 1h-11l-2-1c0-3-2-5-4-7l-3-1-1-1-3-2-5-1h-2a9 9 0 0 0-2 0h-5a4203 4203 0 0 0-14 0h-3a15 15 0 0 0-1 0l-3-1" class="st0"/><path id="Path_2" d="M109 86v-2 2" class="st0"/><path id="Path_3" d="m124 47-1 1 1-1" class="st0"/><path id="Path_4" d="m134 81 1-1 1 2v2l-2 2-1 1a1 1 0 0 0 2 0v-1h2v2h2v-2l-1-2c1 0 1 0 0 0v-3l-2-2c-1 0-2 0-1-2l-1-1-1-1v-2l1-1-1-1v1l-1 1-1-1 1-4v-1l-2-1 1-1h1l-2-1-1-1v-1l1-1 2-1v-1l1-2h1a1 1 0 0 0 0-1v-1l1-1 1 1h1a1 1 0 0 0 0-1v-3l-1-2-1-3-1-1-1-1 1-4v-2h-1l-1-3h-1v-1l1-5 1-1h1v-2h1l1 4-1 1-1-1-1 4h1l2 2-1 3 1 2v2l1 2v1l1 3v1l1-2c-1-1 0-2 1-2v-1l-1-1-1 1v1l-1-1v-1l1-2 1-3-1-2v-1l-1-3v-3h1l1 1v-2l-1-2v-2l-1-1v3l-1-1v-4l-1-1v-2l1-1h1l-1-2-1-1-1-2v1l-1 1-1-1-1-1-2-3h-2l-1 1 1 1 2 1-1 1h-1l-1 1v2l-1 1a31 31 0 0 1 0 3 2 2 0 0 1-3 1l-2-3v-2l-2-1-1-2v-1a1 1 0 0 1 1 0l2 2 2 3 1 1v-1l1-2-2-1-1-1v-1l-2-2-2-1h-1l-1 1-1 1h-2v5l-1 1-1-2v-5l-3-1h-2v1l-1 1h-5v1l-1-1 1-1V9h-2l-3 3v1h1l-1 1v3h-2c1 1 1 2 3 2v2h-2l2 2v1l2-2 1-3 2-2 1 1v1l-1 1v2l1 2v1h-1l1 1v1c-1 1-2 0-3-1v-1l-2 1-1 1-1 2-1 1v1l1 2v1l1-3 1-1h3l1 1v2a2 2 0 0 1-3 2l-1 3-1 1 1 5 1-1 2-3v5l-1 1-1 1 1 1 1 2 1 2v3l1 2 1 3v1l1 4v2l1 1 1 3v1l1 1 2 2-1-1v-3l1-1 1-2-1-1v-5l-1-1 1-3a1 1 0 0 1 1 0c1 0 2-1 2 1v3l1 3 1 1 1 1h3l-1 1v1h-1v2l1 1h2l-1 2 1 1 1 1 1-1 1 1-1 1-1 2v2l1 1v-1l1-2a2 2 0 0 1 2-1h1l1-2 1-1h1v1l-1 2v1l-1 3-1 1-2 1v1l1 1 1 2 1-1a2 2 0 0 0 1-3v-2a1 1 0 0 1 1 0l1 1a12 12 0 0 1 1 3v1l1 2v-1l1-2v-3a2 2 0 0 1 2-1l1-1m-17-25-1 2 1 3-1 2-1 1-1-1v-5l1-2-1-1-2-1 1-1 1-1h2c1 1 2 3 1 4m1-8h-1l-2 1h-2a1 1 0 0 0-1 0l-1 1h-4l-1-2v-1l-1 1a1 1 0 0 1-2-2l1-2v-2h1v1h1l2-1a1 1 0 0 1 1 2v3l1 1v-5l-1-3v-9l1-1v-3l1-1 4-2h2l3 3 1 1h3c1-1 1 0 1 1v2l1 1v1h-1v1h2v2l-1 3 1 1a1 1 0 0 1-1 0h-1l-1-1v2a2 2 0 0 1 1 3l-1 1h3l1 1h1v2l-2 1h-1a2 2 0 0 1-4 2v-4c0-1 0-2-1-1l-2 2h-2m11 21-1 2-2 2a1 1 0 0 1-2-2v-1h-2v-2l-1-3-1-1a12 12 0 0 1-1-4 1 1 0 1 1 2 0v1l1 2v1l2 2h3v-1l1-1c0-1 0 0 0 0l1 1v4m1-11-1 1a2 2 0 0 1-2 0l-1-2 1-3 1-1 1 1 1-1 1-1a1 1 0 0 1 1 1v2l-1 1-1 2" class="st0"/><path id="Path_5" d="M98 58v1-1" class="st0"/><path id="Path_6" d="M108 77v-2 2" class="st0"/><path id="Path_7" d="M99 52" class="st0"/><path id="Path_8" d="m105 86-1 1-2 3a1 1 0 0 0-1 1h1l2 1h1l2 1a1 1 0 0 0 2 0v-2l-4-5" class="st0"/><path id="Path_9" d="M51 91v1h1v-1h-1" class="st0"/><path id="Path_10" d="M236 85a2 2 0 0 0 1 2l-1-2" class="st0"/><path id="Path_11" d="M191 97a8 8 0 0 1-3 0l1 2 2-1v-1" class="st0"/><path id="Path_12" d="M222 68a2 2 0 0 0 1-3l-2-1h-1l-2 1 1 2 1 1 1 1 1-1" class="st0"/><path id="Path_13" d="M96 52v-1l-1-2v-1 1c-1 1 0 2 1 3" class="st0"/><path id="Path_14" d="M199 62v-2h-1v1l-2 1v-2l1-4 1-1 2-3v-4l-1-2v-4h-1v-4h2l1-3-1-2-1-1v2h-1v-2l-1-1 2-4c2-2 2-3 2-5v-1l-1-1h-1v-4l-2 2h-2l-1-1-2-1v1h-1l-2 2h-1l-1-3-1-1h-1l-4 3h2v2l-1 3 1 1-1 1-1-1v-2l-1-1c-1 2-1 4 1 6l2 1h1l1 1-1 1h-1l-1 1 1 2v3l-1 1 1 2v11l1 2 1 3v3l-1 2v6h-1v2l-1 2v1l-1 3h1l-1 2v7l-1-1h-1v1l2 1a1 1 0 0 1 1 2h-1l-1 2 2 3 3 2v2l1 2v1l2-3v-2l1-1a1 1 0 0 1 1 0l1 2 2-1 1 2v4h2l-1-1v-1l1-2v-2l-1-1v-1l2-2v-4l-1-1v-1h1c1-1 2-3 1-4v-3l-1-3-1 1a1 1 0 0 1-1 1v-5l-1-2h2l1 1h1l1-1v-6m-1-11v4h-1l-1-1 2-3m-2-8h1v5h-1v-1l-1-1-1 1h-1v-3l1-2v-1a161 161 0 0 0 1-3h1v5m-9-21h2v4l1-1v-2a2 2 0 0 1 3 0c1 0 2 2 1 3v2l1 1v-1l1-4 2-3 1 1v1l-1 1-1 1a84 84 0 0 1 0 5 3 3 0 0 1-4 2l-1-1v-5l-1 1-3 1v-1l-1-2v-3m-2 17h-1v-1h3c1 0 2 1 1 3v2l2-2v4l-1 1h-3v-5l-1-2m3 41v1l-1 2v1l-1 2V76h-1l-1-1a578 578 0 0 1 2-15v8h1v4l1 2a98 98 0 0 0 0 3v3m1-19v-6l1-1v-1l1 1v4h1v-4l2-3h2v1l-1 1-2 2v5l-1 2a2 2 0 0 1-3-1m5 25a2 2 0 0 1-2 3h-1l-1-1 1-3v-3l-1-1 1-1 2 2-1 1v4h1v-1h1m0-21-1 1v2l-1 1-2 1-1-2v-2l2-1 1 1c0-2 0-2 2-3h1l1 1-2 1" class="st0"/><path id="Path_15" d="M182 99v-4l-3-2-1-1-1-1-1-1v-3c1-1 0-1-1-1v1h-1v-6h-1v-2h1l-1-1-2-1h-1l-1 1v2l-2 2c-1 1-2 0-2-1v-2l-1-1h-1l1-2 2 1h2l2-2 1-1 1-1v2h1l1-1v-2l1-1 1-2v-1h1a2 2 0 0 1 1 1l1-1v-3l-1-1-1-2v-3c-1 0 0-2 1-1v2l1 1v2l1-1v-1l1-2v-2h-1v1l-1 1-1-1 1-2 1-5-1-2-1-3-1-2v-2h1l1 1v-4l-1-2-1-1v3l-1-1v-4l-2-1v-2l1-2h1l-1-2-2-2v1l-1 1-2-2-2-3h-2l-2 1-2 1v1h-1c-2 1-3 0-4-1l-2-1h-1v1l-3 1h-1v-1l-3 1-2-2h-3v3l1 1-1 3v7l1 3v9l-1 4-1 2-1 2v1l-2 2-1 2-1 1 3 3 1 1v7l-1 1-1-2v-2l-2-3-1-4v-1l-1 1v1l1 2v2l1 2 1 3 2 2v1l2 2 1 1v3l2 1v6l-1 1-2 3h-6v3l-2 3v5c0 2 1 2 2 3v-7l1-3a1 1 0 0 1 2 0v2h1v-1l2-4 1-1 1-1 1 1-1 3c-2 0-3 2-2 3l-1 2-1 1v1h1l2-1-1-1v-2h2l1 1h3v-5a1 1 0 0 1 1-1h1v7h1v1l1 1h-1l-1-1 1 2 1-2v-4l-1-2v-6l-1-1v-4h1v-4l-1-1v-3l-1-3a87 87 0 0 1 1-5l1 2 1 1v-1l1 1v1l1 3c-1 2-1 2 1 3l1 1 1 1h2l1 1-2 1v2l1 1h2v1l-1 1 1 1 1 1 1-1 1 1v1l-1 2v3l1 1v-3a2 2 0 0 1 2-2l1 1v-1l2-3 2-1v2h-1v3l-1 3-1 1-2 2 1 1 1 1v1l2-1a2 2 0 0 0 1-3l-1-2h1l1 1a11 11 0 0 1 1 3l1 3 1 1v-7l2-2h1l2-1v1l1 2a2 2 0 0 1-3 3h-1l1 1a1 1 0 0 0 2-1h2v1l1 1h1v-3l-1-1m-18-68h3v-1a1 1 0 0 1 2 0l1 1 1 1 1 1-2 1h-1l-1 3-2 1-1-1v-3l-1-1-1-1 1-1m-7-3 1-1 1 2 1 4a2 2 0 0 1-2 2l-1-1v-6m-12 24h-1v-2l1-2v-1h1v3l-1 2m2-17-1 2a1 1 0 0 1-2-1v-2l-1-3v-1l1-1v1l1 1 1-1h1l1-1 1-1v5l-1 1-1 1m10 42-1 1h-1l-2-3 1-2-1-3v-4l1 1 1 1v4l1 2h1l1 2-1 1m4-17-2 2v1h-7v1c-1 2-3 2-4 1h-1c0-1-1-6 2-5v2l1 1 1-2-1-3-2-4v-2l1-2v-1l-1-2v-2l1-1v-4h5v-1l-1-1 1-1h2c1 1 2 0 3-1h2l-1 1v3l1 1h3l1 1v3l1 1h-1l-1 1h1l1 1 1-1v6l-1 1-1-1h-1v1l2 3v5h1l1-1 1-1a1 1 0 0 1 2 1v1l1-1-1-2 2-3h2l-1 2-1 1v3c1 1 0 2-1 2h-2l-1 1v2l-1 1-2-1v-2h-3v-5h-2" class="st0"/><path id="Path_16" d="M150 74v2-2" class="st0"/><path id="Path_17" d="M146 103h-2v1h2l1-1h-1" class="st0"/><path id="Path_18" d="m23 13-2 1h4l-2-1" class="st0"/><path id="Path_19" d="M21 37v-3l-1 2 1 1" class="st0"/><path id="Path_20" d="m92 40-1-2-2-2v2l2 3v2l-1 1v5h3v-6l-1-3" class="st0"/><path id="Path_21" d="M27 92h-2l2 1v-1" class="st0"/><path id="Path_22" d="M91 36v-1 1" class="st0"/><path id="Path_23" d="m32 89-1 1v1l1 1v-1l1-1v-1h-1" class="st0"/><path id="Path_24" d="M46 93v1l2-1h-2" class="st0"/><path id="Path_25" d="M61 89a9 9 0 0 1 0 1l1-1h-1" class="st0"/><path id="Path_26" d="m93 89-1-1h-1v1l1 2v1a1 1 0 0 0 2 0v-2l-1-1" class="st0"/><path id="Path_27" d="M101 85c1 0 2-1 1-2v-3a1 1 0 0 1 2 1h1v-4c0-2-1-3-2-3l-1-1v-2l-1-1v3a69 69 0 0 1 0 5 1 1 0 0 1-1 0l-1-2-1-3-3-3-1-1h2l1 1h1l1-1v-6l-1-2v2a1 1 0 0 1-1 0v-2l-1-2-1-2a2 2 0 0 1 0-2v-1l-1-1-3-2h-1l-1 1-1-1v-3l-1-6 1-1h1l1 1-1-1-4-6v-3h1l3 1 1-2-1-4-1-1v1h-2l1-1 2-4v-3h-2l-1-2h-1l1-2h2l-3-1h-1v1l-1 1-1-2-2-1h-3a1 1 0 0 0-1 1l2 1 1 1-1 1-2-1h-1l-1 1-2 1-1 1h-1v-3l1-1h-2v2l-2 3h-2l-1 1 1 7h2v1l-1 3-2 2a68 68 0 0 1 1 2l2-3 1-3v-1l1-2h1v3l-1 1-1 3a27 27 0 0 1-3 5h1a1 1 0 0 1 0 1l-1 2-1 2v7l-1 1c0 2-1 4-3 4l-1 1 1 1 2 1 1 3v5l-1 3v7a6 6 0 0 1 1 2h1v2l-1 1-1 3-1 2 4-6a1 1 0 0 1 1 0h2l1-1 3 1 2 1 3 1 2-2 1-1 3 1v1h1v-1l-1-1a1 1 0 1 1 1-1l3 3 1 2 3 1v1h2l-1-1 1-1h1l1 1 1 3v5l1 3v2h1l1-4v-4l-1-1v-5h1c1-1 2 0 2 1M83 53v-1h1l1 2 1 1 1-1h1l2-1 1 1-1 4-2 3-2 2-1-2v-3l-1-2-1-1v-2M72 23l1-1 2 3v1l1-3 4-2h1a1 1 0 0 1 1 1v3h-1l-2-1v-1l-1 1v4a3 3 0 0 1-4 3l-1-2v-2l-1-3v-1m11 49-2-1-1-1h-2l-1-1a1 1 0 0 0-1 0l-3 1-2 2c-1 1-2 2-3 1l-2-2 1-3-1-3v-2h1l1 2v3l1 1v-4a11 11 0 0 1 1-2l2-3v-1l-1-2h-1l-1-1h1l1-1h1v-1a1 1 0 0 1 0-1l1-2 2-2v-2l-1-1h-2c-1-1-2-3-1-4l2-4-1-2v-2a1 1 0 0 1 1 0l1 1 1 2v4l1-1 1-1v8-1l1-3 1-1h1l-1 2v5l1 1-1 1h-1v2l1 3v1l3 2v2l1 1 1 1v2l1 2c0 1 0 2-1 1h-1v1h1v3h-1m9 2h-1l-1 1v2l-2 3-3-2v-2l-1-1a1 1 0 0 1-1-1l2-1 2 1h2c1-1 1-2 3-2l1-1v-1l1 1a2 2 0 0 1-2 3m7 8a2 2 0 0 1-2-2v-3l-1-2v-1h2l1 3v5" class="st0"/><path id="Path_28" d="m57 66 1 1 1-1v-5a1 1 0 0 0-1 0l-1 4-1 1-1 1v3l-1 3-3 1-1-1v-4l-3 1v-1l-1-2 1-1h3a2 2 0 0 1 2 2l-1 1 2 1v-4a2 2 0 0 1 2-2l1-2v-3l-1-2-3 1h-3l1-1h1l1-2v-1c-1-1 0-1 1-1h2l1-1h3l1-1 1-2v-2l-1 1v1h-2v-1l1-2 2-4 1-2v-1l-2-1v1l-1 3v1h-1l-1 4h-1v-1l1-3v-2l1-2v-2h2v-1l-3-3-1-2 1-1h1l2-1 1-1-1-3-1-1-1-2v-1h-1v5l-1 2-1-1v-7l-1-1-1-2v-2l-2-1h-2l-1 1 1 3-1 1h-1l-1 1v1l-1-1v-2l1-1 1-1v-1l-3-2h-1l-1 2v2h-1l-1-1v-1l-1 1v1l-1 1-1-1-1-2-5-2a1 1 0 0 1 0 2l-3 1v1l-1 2-1-1c-1-2-2-2-4-2a1 1 0 0 0 0 1l-1 1-1 1h-2a1 1 0 0 1-1-1l1-1v-3h-5l-1 2v2l-1 2-1 1v3a1 1 0 0 0 1 0l1-2h1v5h-2v1l1 2v1l1 2v2h-2l-1 4v2l2 3 3 4v1l1 3a1 1 0 0 1-1 1l-1-1-1-3-1-1h-1v4l1 2v3l1 2v6l-1 2v2l1-1 1 1a38 38 0 0 1 0 3h-1c0 1 0 0 0 0h-1s0-1 0 0h-1v1l2 2 2 1v2h-2v1a912 912 0 0 0 2 5l1 1v3l1-1v-2l-1-4 1-2 1 1v1l1 5v1l-1 1v1a1 1 0 0 0 0 1v1l-1 1-1-1a2 2 0 0 0 3 3l2-1 1-1v-1h-1v-2h1l2 1h1l2-1 1-1v-2l2 2 2-1h2l1 3v1l-1 1v2l1 1v3l2-2v-7l1-3 1-1h1v2l-1 1v7l1-2a1 1 0 0 1 2 0h1v-1a1 1 0 0 1 2-1l2-1c1 0 3-1 3-3v-1h1l1 1h1l2 1h1l1-1-1-1c-1-1-2-3-1-4v-4h1l1 1v6l1-1v-2h1v-2h1l-1-4h-1l-1-1 1-1v-3l-1-2-1-1v-1l1-1M46 46l-1 1v3l-1 2h-3v1l-1 2-1 1-2-1v-4l2-1v-1l1-1a1 1 0 0 1 3 1v1-3l1-3h2v2m-1-20h1l1 1 2 3h1l2 1v9l-1-1v-1l-1-1v-2l-1-2c-1 1-1 1-1-1l-1-2-1-1-1-3m-17 9 1-2v-1l1-1h3l1-1h3v2h2l3-3a1 1 0 0 1 1 0h1l-1 2v4a109 109 0 0 0 3 3v2l-1 1v-1l-1-1v4l-2 3h-4l-1 1a1 1 0 0 0 0 1l-2 2v-1l-3 1h-1v-1l1-1v-1l-2-1v1l-1 1h-1v-1l-1-2 2-3-1-2h-1v1l-1 1a1 1 0 0 1-1-1l1-2 1-2 1-2m-1 23-2 4a2 2 0 0 1-3-2v-3l2-1 1 2v1l1-2 1-2 3-2a1 1 0 0 1 1-1v1l-1 2-2 1-1 1v1m-4-33 2-2h1v1a21 21 0 0 1-2 3h-1v-2m-8 3h2l1 1 1-1 2 1 1-1 1 1v9l-2 1c-2 0-2 0-2-2l-1-2h-2a160 160 0 0 1 0-3v-2l-1-1h-1a1 1 0 0 1 1-1m4 42h-1l-1-3v-1l2 2v2m0-15v4l-1 1-1-1v-4l1-4-1-1-1-2-3-5-2-6 1-1 2 3v2l2 3 2 1 1 1v6l1 2-1 1m8 25-1 3-1 1-1 1-1 1-2 1-1-1v-3l1-3v-2h3l2 1 1 1m16-3v-2l-1 1v1l-1 1-1-1-1-1h-1l-2 2h-3c-2 1-3 0-4-1h-1l-2-3 1-2v-1a3 3 0 0 0-2-4l-2-2v-2a1 1 0 0 1 1 1l2 1 2 1h1v-1l1-2 1-1h3l1 1h2l1-2-1-2a1 1 0 0 1 1 0l1 1a4 4 0 0 0 4 2l1 1-1 1h-2c-1 0 0 0 0 0l3 2 1 4-1 1v2l1-1h1v2l-1 2v1h-2m7 2-1 1a1 1 0 0 0 0 1v3l-1 2h-1l-1-2v-3l-1-1v-1l1-1h2l2-1v2" class="st0"/><path id="Path_29" d="M237 12h1v-1l-1-1-1 1h1v1" class="st0"/><path id="Path_30" d="M29 73a2 2 0 0 0 0-2v2" class="st0"/><path id="Path_31" d="M226 10h-1v1l1-1" class="st0"/><path id="Path_32" d="M222 72h-1l1 1v-1" class="st0"/><path id="Path_33" d="M230 73" class="st0"/><path id="Path_34" d="M240 53v1-1" class="st0"/><path id="Path_35" d="M236 72v-1 1" class="st0"/><path id="Path_36" d="m235 60-1-1-1 1h2" class="st0"/><path id="Path_37" d="m225 42 1 1v-1h-1" class="st0"/><path id="Path_38" d="m300 63 1-1-2-1v1l1 1" class="st0"/><path id="Path_39" d="m247 96 1-1-1 1" class="st0"/><path id="Path_40" d="m237 58 2-2v-1l-2 3" class="st0"/><path id="Path_41" d="M335 37a1 1 0 0 1-1-2h1l-1-1-1-1h-1l-1-1v-5l1-1h1l-2-2-2-2-1-1v-2l-1-2-2-1h-3l1 1a1 1 0 0 1-1 1h-2l-2-2-2-1-1 1-1 1h-6l-3-2-2 1v1l-1 1h-4c0 2 0 2-2 2l-1-2 1-1h-1l-4 1a1 1 0 0 0 0 1l-1 2-1 1 2 2 1 2v1-2h2v2l1 2v-2l-1-1 1-2a1 1 0 0 1 2-1l1 1 1-1 1-1h1l2-1h1l-1 2-2 1-1 1v2l-3 2-1-1v2l-1 2-1 2v1l1 2v3l-1 2 1 2v4l1 3v3a34 34 0 0 1-1 5v2l1-1 1-2v-6h1l1 1 1 2-1 3-1 1a682 682 0 0 1 10 3l3-1v-1l1-1v-1l1 1h1a2 2 0 0 1 3-1l1 2v6l1 1h1l-1-3a2 2 0 0 1 1-2l2 1h1v-1l1 1v1l-1 2-1 1-1 2-2 1-2 2 1 2v1l1-2a1 1 0 0 1 1 0h1v-3a1 1 0 0 1 1 1v4l-1 3-1-1-1 2-1 2h-3l1-3h1v-2h-4v1l1 1-1 1h-5v-2h-4a2 2 0 0 1-3 0l-1-2v-5l-1-2-1 1-1 1-2-2h-2l-1 2-3 3v1l1 2 1-1 2-1h1l2-2 1 1v2l-1 1c-1 1-1 2-3 2l-1 2-2 2-2-2v-6l-1 1-1 2 1 2v2l1 3 1 2 2 3v1l2 2 1-1v-2l1-1 1-3h1v1l1-2 1-1 1-3h2v1l-1 2v1l-2 3-1 2-1 1h-1v7l1 2v2l1-1v-1l1-3-1-4 1-2 1-1a2 2 0 0 1 2 2l1 1 1-2 1-2 2-1h1l-1 2-1 1-1 1v2h1l1-1 1 1v2l1 4v-5l2-3h2l1 1 1 1 1 2h1l1-2 1-1h1v1h1v-1h5l2-1 1-1a1 1 0 0 0 0-1l-1-1-1-2-1-1v-3l1-1a1 1 0 0 0 1 0 1 1 0 0 1 2 1l1 3 1 2V76l1-1 1-1v-3l-1-2-1-2v-4l1-1h1v-1l-1-1-2-1v-6l-1-1-1-1-1-1v1l1 1v1h-2l-1-3-1-2h-1l-2 1-2-1-2-1h-2l-1 1 1 1v1h-5l-1 1h-1l1-2-1-1h-1l-1 1-1-1h-5a2 2 0 0 1-3-1l-1-1h-1l-1-1v-4a1 1 0 0 1 1-1l1 1 2 1 1 1v1l1 1v-7l2-2 1-1v-3l1-1 1 1 2 1 2-1 1-1v-1h2l2 1 1-1a1 1 0 0 1 0 1l-1 2h-1l1 1 1-1c1-1 0 0 0 0l1 2v3l1 1c1 0 2 1 2 3l1-2-1-1 1-1h1l2 1h1l1 1v1l1 1 1-2 1-1h1l1 1v1h1c1-1 1 0 1 1v1h1v-3l1-2h1l-1-1m-22 51-1 1-1-2v-2l1-1a2 2 0 0 1 2 2l-1 2m8 1c-1 1-1 0-2-1v-1l1-3h1v3l1-1c1 2 1 3-1 3m5-14-1-2a17 17 0 0 1 1-4l1-1a1 1 0 0 1 0 1v3c2-1 2 0 2 1 0 2-1 2-3 2m-1-22v1h1a1 1 0 0 0 1 0 1 1 0 0 1 2 0v8l1 2v2h-1l-1-2v-5l-2-1-1-2-1-1v-1l1-1m-8 0 1-1h1l1-1 1-1h1c1 1 0 3-1 3l-1 1-1 3h-1l-1-1v-3m-14 4 1-3-1-1h1l1 1 1 1-1 2-1 1a1 1 0 0 1 0 1h-1v-2m6-27-2 1-1-2 1-3v-1h1l2 1v2l-1 2m13-9-1 2v3l-1 1c-1 1-2 0-2-1v-1h-1c-2 0-2 0-2-2v-3h2v1h3l1-1h1v1m6 13h-2v3a2 2 0 0 1-3-1v-2l1-1v-1a1 1 0 0 1 2-2h1v-1l1-1h1v2l-1 4m2 3v1l-2-2 1-1v-1h1v3" class="st0"/><path id="Path_42" d="M316 61v-1h-1l-1 2a1 1 0 0 0 2-1" class="st0"/><path id="Path_43" d="M255 99h-2v1h2v-1" class="st0"/><path id="Path_44" d="M291 97v-1l-1-2v-1l-2-1c-1 0-2-1-1-2l-1-1-1-1v-3h1l-1-2v1l-1 2-1-1v-5l1-1h-2v-2h2l-2-1-1-1v-2h2l1-2v-1l1-1c1 0 2 0 1-1v-2h2v1l1-1a1 1 0 0 0 1-1l-1-1v-1l-1-3-1-2-1-2-1-1 1-4v-2h-1l-1-3h-1v-2l1-4 2-1v-3l1 1 1 3v1h-2l-1 4h1l2 2-1 3 1 2v2l1 2v2l1 2v1h1v-2l1-2v-2l-1 1-1 1a1 1 0 0 1-1-1l1-2 2-4-2-2v-1l-1-3v-3h1l1 1v-5l-1-2-1 1v1l-1-1v-4l-1-1v-2l1-1h1l-3-5v1l-1 1-2-2-2-3h-2l-2 1h-2v2l-3-1-2-1-3-2v2l-3 1-1-1h-3l-2-2h-3v3h-4v5l1 1-1 1v3l1 2v1l-1 1v1h1l-1 1-2-2h-2a23 23 0 0 0-2 1 38 38 0 0 0-2 4v3l1 1 1 1v-4c0-1 1-2 3-1h2v3a2 2 0 0 1-2 2h-1l-1 2-1 2v1l-1 2v4l-1 1v3l2 3 1 2h-2l-1-1v2a1 1 0 0 0 0 1l1 1h1l2 1 1 1v-1l-1-2v-4l-1-4-1-3v-1l2-1 1-2 1-2h1v2l-1 3-1 2-1 1v2l1 1v2l1 1v-3h1l1 1v7l-1 2 1 2v2l-1 2 1 1 1 4v7h1l-1 3h-2v1l-1 2-1 2v1l-1 1h1l2-1v-3h1l1 1h4v-6l1 1 1 1v3l-1 3h2v1h-2l1 1 1-1 1-3-1-2v-7l-1-1v-4h1v-2l1-1-1 1h-2v1l-1 2-1 1-2-1v-6h3a1 1 0 0 1 2-1h1v-3l-1-3 1-4v-1l1 1v2h1v-1l1 1v5l1 3 1 1 1 1h2l1 1-1 1h-1v2l1 1h1l2 1-2 1v1l3 1h1v2l-1 1v4l1-1v-2a2 2 0 0 1 2-1h1l1-3 1-1h2v1l-1 1-1 2v1l-1 3h-1l-1 2v1a1 1 0 0 0 0 1 1 1 0 0 1 1 2l2-1a2 2 0 0 0 1-3v-2a1 1 0 0 1 1-1l1 2v3l2 3v-4l1-2a2 2 0 0 1 2-2h1l2-1v4a2 2 0 0 1-2 2h-2l1 1a1 1 0 0 0 2 0l1-1 1 1 2 1v-4m-19-38-2-1h-1v1l1 1v4l1 2 1 1v2l-1 1h-1l-1-1-1-4v-4h-1c-1-1-2 0-3 1h-2v-1l1-1v-2l-1-1h-2l-1 3c0 2 0 2-2 2v1l-1 2h-2v-8l1 1v1l1-1h1l1-1v-6h1v-1a1 1 0 0 0-1 0h-1v-6h1v1h1l1-1a2 2 0 0 1-1-4v-1h-3l-1-1h-1l1-2 2-1-1-2v-2l-1-1-2-1v-1l1-1 2 1 1 1 1 2v1l1-1h1l1 1v5c0 1 1 2 2 1l2-2h1l1-1v-2l1-3-1-1-1-1v-1h1l2 2v5l1-1v-2l1-3a2 2 0 0 1 3 1v1l1 1v-3h2v1l-1 1v3h1v1l1 2h1a2 2 0 0 1 2 1v4l-1 1h-1v-1h-1l-1 1a1 1 0 0 1-2-2v-3l-1-1v5l1 3v10l-1 1v3l-1 1h-1m8 3h-1l-1 1-1 2v5l-1 2a2 2 0 0 1-3-1v-3l1-2v-2l1 1v3h1v-3l1-3 1-1h1v-4h1l1 2-1 3" class="st0"/><path id="Path_45" d="M309 100" class="st0"/><path id="Path_46" d="M312 93v1h1l-1-1" class="st0"/><path id="Path_47" d="m203 50-1-3 1 3" class="st0"/><path id="Path_48" d="M246 89v-2l1-1v-3h1v-2l-1 1h-1v-1l1-2 1-2-1-2h-1l-1 2-1 2-1-1v-3l-1-3v-1h-1l-2 1a1 1 0 0 0 0 2l1 2-1 1-1-1h-1l-1-2h-2l-2 1v3l-1 1-1-1-3-5-1-1v-2l1-1v-6l1-2v-2l1-2v-1l3 1h1l1-1v2h1l3-5 1-2 1 1v-3a12 12 0 0 0-1-5h-1v2h-2v-1l-2-3h-2l1 1 1 1a1 1 0 0 1 0 1h-1l-2-2h-1v1l1 2-1 1a1 1 0 0 1-1 0v-1a1 1 0 0 0-2 0v-1l-2-1-2-2c-2 1-1 1-1 2v4l-1 1-1-3c-1 1-1 0-2-1v-1l-1-2h-1l-2-1h-2v-1l2-1 2-1 1-2v-1l-2-2-2-2 2-1-1-3 1-2-1-2v-2l1 1 1 1 1-1v-1h2v1l-1 4c1 1 0 2-1 3v1h1l2-2 2-1 1-1v3a1 1 0 0 0 1-1v-1h2l1 1 1 1c1 2 3 2 4 1h1-2v-1l1-1 2-1 2-1a1 1 0 0 1 1 2v1h1l1-1 1-1 1 1v3h4l1-1v-4h1v-1l-1-1 2-3v-5c-1-2-1-2-4-2l-1 1h-1l-1 1-1-2h-1v4h-1v-1l-1-1c-1 0-2 0-1-1v-1l-4-3h-3c-2 1-2 2-2 3v1a1 1 0 0 1 0 2h-1l-1-1v-1l-2-3-2-2h-6l-1 1h1l2 1v2h-1l-3-1-3 2-1 1-1 1-1-1 1-2 1-1a191 191 0 0 0-4 0h-2v3l1 2 1 2v2l-1 2-1 3-1 3h1v-1l1-1 1 1v1l-1 4v4l1-2 1-3 1-4 1-3a42 42 0 0 1 0-3l1 1v8l-2 3-2 4-1 2h1l1-1v2l-1 1v5l1 5v1h-1l-1-1v-1h-1l-1 1v2l-1 2h1l1 2 1 1v4l-1 3-1-1v2l-1 2v5h1l-1 6-1 2v2l1 2v1l-1 2h-1l4 1 4-4 1-1 1 2v1h1v-5l-1-3h-1v2l-1 3-2 2h-2V77l-1-1v-1l1-1 2 2v3l1 1v-1h2l1-1h1l2 3-1 1 1 3v8l-1 3v5a1 1 0 0 0 1 1h1v-9l1-5v-1l1-3 2-3a1 1 0 0 1 1 0l1 1-2 2-1 2 2 1 1 1c1 1 2 2 4 1l2-2 1-2h2v2l-2 2h2l3-2 1-2v-1l-2-2v-1h2l1 2 1 1 1-1a2 2 0 0 1 3-1l1 3v18l2-2 1-3-1-2v-6l1-2c2-1 2-3 2-4l-1-2a1 1 0 0 1 1-1l1 1 1 1a34 34 0 0 1 0 4l-2 3-1 1c2 0 4 0 4-2h-1m-15-40 1 1v-1a1 1 0 0 1 2 1l-1 3-1 2-2-2v-3a1 1 0 0 1 1-1m12-29 2-3 1-1 1 1-2 3h-2m-9-6v1l-1 1-1 1h-1v-1l3-2m-7 4 2-2 2 2-2 2-2-2m-13-3a1 1 0 0 1 1-1h1c2 0 3 2 5 3l-1 1h-1l-4-1-1-2m4 64a1 1 0 0 1 0-1l1-3v-3l-3-1-1 1-2 3-1 1h-1v-1h-2c-2 0-2 0-2-2v-4l-1-2 1-1v1l3 2 1-2v-1l-1-1v-2l1-1a1 1 0 0 1 1 0v1h2l1 1-1 2-1 3-1 1v2l1-2 1-2 2-3v-3l-1-3-1-1v-1l-1 1h-3l-1-1 1-4 1-1v-1l1-3a1 1 0 0 1 1 0l1 1v7h1l2 1 1 1 1 1 4-2 1-1h1v1l1 2h1l-1 3v6l-2 2v2c1 1 2 2 1 4l-1 1-1-1c-2 0-3 1-4 3a1 1 0 0 1-1 0m11 1h-2l-1 1v2l-1 3-2 1-2-1v-4l-1-1 1-2h2a1 1 0 0 0 1 0l3-1h2v2" class="st0"/><path id="Path_49" d="M294 93v2-2" class="st0"/><path id="Path_50" d="m273 32-1-1v4l1-1 1-1-1-1" class="st0"/></g></svg>